<svg width="468" height="264" viewBox="0 0 468 264" fill="none" xmlns="http://www.w3.org/2000/svg">
<path d="M559.958 74.2582C557.658 67.6842 554.204 61.799 549.753 56.0064C545.582 50.5715 539.937 45.9048 534.337 41.4368C528.627 36.8893 521.921 33.0747 515.269 29.4896C508.875 26.0459 502.054 22.9465 495.074 20.3505C480.599 14.9686 465.654 10.4564 450.122 7.48946C434.465 4.50048 418.474 2.0722 402.384 1.25542C385.698 0.407729 369.165 0.301767 352.473 1.23334C336.493 2.12518 320.65 4.35037 305.075 7.32611C289.314 10.3372 274.116 14.761 259.444 20.2622C252.443 22.8847 245.61 25.9488 239.183 29.4058C232.51 32.9996 225.793 36.7833 220.061 41.3529C214.384 45.8827 208.805 50.5538 204.519 56.0329C199.991 61.821 196.641 67.7681 194.314 74.3554C192.486 79.5254 192.239 84.8985 192.414 90.2319C186.956 90.1171 181.504 90.1347 176.067 90.329C159.436 90.9206 143.072 92.2275 126.687 94.6469C110.937 96.9736 95.6466 100.762 80.6683 105.274C65.4491 109.861 51.1935 116.475 38.0984 124.17C25.2059 131.742 14.6674 141.61 7.17826 152.93C3.48296 158.515 1.35884 164.983 0.433645 171.235C-0.475125 177.363 0.0230562 183.897 2.13075 189.844C4.441 196.374 7.91185 202.22 12.3955 207.95C16.6218 213.35 22.1456 217.986 27.7461 222.454C33.5107 227.054 40.2827 230.864 47 234.48C53.3559 237.902 60.1772 241.015 67.1298 243.575C81.922 249.023 97.0919 253.434 112.908 256.542C128.395 259.589 144.271 261.721 160.186 262.609C176.828 263.536 193.372 263.496 210.01 262.569C226.137 261.668 242.178 259.439 257.862 256.335C273.361 253.271 288.241 248.882 302.743 243.544C309.909 240.904 316.889 237.641 323.436 234.114C329.924 230.626 336.466 226.882 342.028 222.445C347.677 217.942 353.218 213.248 357.477 207.8C362.01 202.008 365.431 196.083 367.736 189.487C369.554 184.29 369.762 178.913 369.581 173.566C375.034 173.681 380.486 173.667 385.928 173.504C402.576 173.001 418.967 171.561 435.368 169.221C451.069 166.983 466.464 163.124 481.333 158.555C496.481 153.901 510.681 147.46 523.766 139.773C530.165 136.016 535.985 131.557 541.311 126.85C546.748 122.056 551.023 116.665 554.828 110.965C558.512 105.446 560.609 99.062 561.523 92.8765C562.432 86.7351 562.044 80.2274 559.958 74.2582ZM367.84 182.418C367.309 185.685 366.406 188.926 365.218 192.334C363.17 198.193 359.097 204.008 354.553 209.125C345.488 219.319 333.06 228.149 319.637 234.697C312.421 238.215 305.053 241.394 297.383 244.22C294.257 245.372 290.731 246.586 287.167 247.664C282.958 248.931 278.731 250.132 274.478 251.302C259.143 255.514 243.13 257.915 227.167 259.915C219.809 260.838 211.061 261.324 203.123 261.765C195.195 262.207 187.214 262.211 179.265 262.132C163.273 261.973 147.277 260.82 131.915 258.551C115.891 256.189 100.07 253.019 84.829 248.339C70.097 243.809 55.4691 238.202 42.4123 230.529C29.4432 222.917 17.3335 213.549 9.63085 201.902C2.31141 190.838 -1.0171 177.094 3.31872 164.829C5.68919 158.14 8.8261 152.466 13.5013 146.493C17.7003 141.133 23.131 136.546 28.8902 131.95C34.9013 127.159 41.3503 123.61 48.3412 119.848C54.6588 116.444 61.4582 113.499 68.3506 110.916C75.8069 108.126 83.4056 105.592 91.4915 103.367C99.1722 101.256 106.962 99.4902 114.846 97.9361C130.618 94.8191 146.04 92.9162 162.107 92.1038C172.356 91.5829 182.67 91.2915 192.967 91.4593C193.104 91.4946 193.252 91.4946 193.394 91.4681C199.115 91.574 204.831 91.8169 210.524 92.254C226.986 93.5122 242.736 95.5388 259.039 98.7397C262.247 99.3666 265.461 100.055 268.664 100.806C268.74 100.837 268.822 100.854 268.904 100.863C273.229 101.883 277.516 103.027 281.682 104.307C289.439 106.691 296.562 108.881 303.816 111.857C307.489 113.367 311.102 114.938 314.71 116.546C314.77 116.572 314.825 116.59 314.885 116.603C318.186 118.153 321.657 119.517 325.183 120.682C329.403 122.078 333.734 123.446 338.157 124.387C342.778 125.367 347.387 126.245 352.095 126.908C356.606 127.543 361.139 127.919 365.694 128.263C375.083 128.974 384.592 128.568 393.959 127.857C403.167 127.159 412.2 125.389 420.987 123.15C429.576 120.961 437.969 117.733 445.327 113.539C452.739 109.309 459.571 103.826 463.064 96.9472C464.816 93.4902 465.894 89.7948 465.599 86.0332C465.309 82.3069 464.252 78.7218 462.095 75.4017C461.044 73.7858 459.965 72.1434 458.564 70.7085C457.004 69.1147 455.411 67.6268 453.697 66.139C452.153 64.7924 450.319 63.6268 448.557 62.4745C446.898 61.3928 445.179 60.3199 443.367 59.4104C442.108 58.7791 440.848 58.1477 439.584 57.512C435.314 55.6797 431.038 54.0108 426.554 52.5318C422.514 51.1984 418.277 50.1079 414.051 49.247C405.127 47.4236 396.072 46.1344 386.875 45.7194C377.716 45.2999 368.42 45.322 359.311 46.3021C350.152 47.2867 340.944 48.6819 332.223 51.2117C327.663 52.5318 323.277 54.0064 318.914 55.7062C314.748 57.3265 310.932 59.3928 307.166 61.5429C305.272 62.6246 303.536 63.9226 301.839 65.1941C300.284 66.3641 298.763 67.6003 297.443 68.9513C295.998 70.4348 294.454 71.9359 293.359 73.6136C292.237 75.3399 291.262 77.0441 290.343 78.8543C289.505 80.5055 289.231 82.4393 288.848 84.1877C288.465 85.936 288.465 88.1215 288.848 89.8698C289.231 91.6182 289.505 93.552 290.343 95.2032C291.262 97.0134 292.231 98.7176 293.359 100.444C294.454 102.122 295.998 103.623 297.443 105.106C298.757 106.457 300.284 107.693 301.839 108.859C302.918 109.667 304.018 110.435 305.146 111.177C294.23 106.828 282.969 103.164 271.259 100.281C270.689 100.144 270.12 100.007 269.55 99.8699C268.647 98.0465 267.859 96.2584 267.158 94.3688C266.808 93.4372 266.682 92.4306 266.468 91.4769C266.424 91.2871 266.403 91.1414 266.419 91.2915C266.392 91.084 266.364 90.8765 266.342 90.6645C266.255 89.9846 266.173 89.3091 266.085 88.6292C265.576 84.5188 266.622 81.0088 268.116 77.1677C268.466 76.2627 268.921 75.4061 269.364 74.5275C269.501 74.2626 269.638 73.9977 269.769 73.7328C269.819 73.6357 269.868 73.5562 269.884 73.5253C270.218 73.0132 270.558 72.5055 270.892 71.9933C271.965 70.3509 273.153 68.7394 274.538 67.256C275.03 66.7262 275.529 66.1964 276.021 65.6665C276.175 65.4988 276.333 65.3354 276.492 65.1676C276.552 65.1058 276.624 65.044 276.684 64.9866C277.587 64.1522 278.49 63.3177 279.394 62.4789C280.987 61.0043 282.914 59.7018 284.742 58.4215C285.525 57.874 286.303 57.3309 287.118 56.8144C287.77 56.4038 288.421 55.9932 289.078 55.5782C289.341 55.4104 289.604 55.247 289.866 55.0793C290.009 54.9954 290.31 54.8232 290.074 54.9512C292.127 53.8166 294.164 52.6907 296.283 51.6532C300.284 49.6929 304.451 47.7944 308.764 46.3154C310.215 45.8165 311.671 45.322 313.122 44.8231C313.297 44.7613 313.478 44.6995 313.659 44.6421C313.484 44.6995 313.56 44.673 313.763 44.6156C314.485 44.3993 315.203 44.1829 315.92 43.9666C318.443 43.2072 320.978 42.514 323.535 41.8341C327.832 40.6862 332.283 39.6663 336.717 38.9202C341.732 38.0725 346.741 37.3087 351.816 36.7568C352.621 36.6685 353.426 36.5846 354.225 36.4963C354.46 36.4698 354.701 36.4433 354.937 36.4169C354.942 36.4169 354.942 36.4169 354.942 36.4169C354.948 36.4169 354.98 36.4169 355.052 36.4124C356.601 36.2844 358.145 36.1608 359.689 36.0372C362.185 35.8341 364.692 35.7281 367.2 35.5957C376.605 35.0923 386.251 35.2998 395.623 36.1166C398.207 36.3462 400.78 36.5846 403.359 36.8628C404.136 36.9467 404.919 37.035 405.696 37.1188C405.888 37.1365 406.08 37.1586 406.277 37.1807C406.277 37.1807 406.315 37.1895 406.447 37.2071C407.99 37.4323 409.534 37.6531 411.072 37.8782C415.594 38.5361 420.182 39.2822 424.589 40.3286C434.306 42.6332 443.104 45.035 451.901 48.8673C454.261 49.896 456.571 50.9379 458.849 52.077C459.708 52.5053 460.562 52.9335 461.394 53.4015C462.095 53.7901 462.79 54.183 463.491 54.5715C463.77 54.7261 464.049 54.885 464.334 55.0439C464.476 55.1234 464.789 55.3044 464.564 55.1631C468.352 57.5517 472.179 59.9755 475.354 62.916C476.28 63.7681 477.205 64.6246 478.13 65.4811C477.873 65.2427 478.256 65.6224 478.305 65.6754C478.53 65.9226 478.749 66.161 478.973 66.4039C479.46 66.9425 479.953 67.4767 480.44 68.0154C481.869 69.5739 482.975 71.3399 484.075 73.0617C484.218 73.2913 484.365 73.5209 484.513 73.7505C484.557 73.8211 484.579 73.852 484.584 73.8609C484.59 73.8653 484.59 73.8697 484.59 73.8741C484.891 74.4657 485.192 75.0618 485.488 75.6578C485.931 76.5408 486.282 77.4062 486.621 78.3201C487.349 80.2848 487.814 82.1788 488.028 83.9184C488.263 85.8257 488.362 87.7374 488.099 89.6447C487.825 91.6005 487.574 93.2473 486.802 95.3136C486.577 95.9317 486.347 96.5454 486.117 97.1635C486.09 97.2297 485.887 97.7065 486.046 97.4107C485.937 97.6138 485.827 97.8169 485.723 98.0156C485.258 98.8986 484.831 99.8081 484.289 100.665C483.09 102.545 481.82 104.311 480.424 106.104C479.734 106.996 478.809 107.813 478.02 108.647C477.944 108.727 477.873 108.797 477.851 108.819C477.714 108.947 477.577 109.071 477.446 109.199C476.871 109.742 476.296 110.281 475.721 110.819C474.292 112.161 472.716 113.433 471.073 114.603C470.444 115.053 469.809 115.504 469.174 115.954C468.927 116.131 468.681 116.303 468.435 116.479C468.369 116.523 468.303 116.572 468.237 116.616C468.232 116.621 468.227 116.625 468.227 116.629C467.06 117.34 465.9 118.047 464.739 118.757C463.07 119.777 461.356 120.788 459.571 121.663C455.192 123.808 450.719 125.711 446.115 127.526C441.702 129.27 437.564 130.431 432.746 131.711C423.587 134.153 414.16 136.02 404.591 137.062C402.998 137.234 401.399 137.407 399.8 137.579C399.713 137.588 399.237 137.632 399.653 137.596C399.51 137.61 399.368 137.623 399.231 137.632C398.454 137.702 397.682 137.769 396.904 137.839C394.32 138.064 391.758 138.237 389.163 138.374C384.16 138.638 379.161 138.669 374.152 138.669C369.641 138.669 365.065 138.444 360.575 138.087C358.993 137.959 357.411 137.83 355.824 137.707C355.375 137.672 354.931 137.632 354.482 137.596C354.898 137.632 354.422 137.592 354.334 137.583C353.984 137.544 353.634 137.504 353.283 137.468C350.694 137.186 348.126 136.899 345.553 136.528C336.022 135.146 326.513 133.336 317.442 130.559C313.998 129.508 311.354 128.797 307.96 127.442C304.752 126.162 301.587 124.841 298.434 123.468C286.259 118.095 273.624 113.482 260.288 110.298C246.596 107.027 232.718 104.607 218.544 103.186C204.579 101.782 190.613 101.424 176.555 101.579C169.367 101.654 162.157 102.241 155.012 102.832C148.448 103.375 141.89 104.161 135.408 105.159C121.705 107.278 107.888 110.038 94.9568 114.356C81.8727 118.722 69.232 123.729 57.8943 130.647C52.4855 133.945 47.0438 137.517 42.6204 141.694C38.0984 145.967 33.6531 150.405 30.6695 155.53C27.653 160.723 25.3592 165.963 24.538 171.685C24.1165 174.626 24.1329 177.509 24.3026 180.462C24.4613 183.208 25.3208 185.932 26.0599 188.604C26.7497 191.098 28.0745 193.866 29.487 196.144C31.0253 198.635 32.5308 201.178 34.4907 203.478C38.4159 208.096 42.801 212.626 48.0128 216.365C53.345 220.198 58.8031 223.747 64.7812 226.9C70.8361 230.092 77.181 232.811 83.6684 235.363C96.1558 240.268 109.59 243.708 123.052 246.348C136.328 248.948 150.063 250.82 163.711 251.496C177.934 252.202 192.069 252.313 206.287 251.456C220.521 250.595 234.47 248.644 248.359 246.021C261.985 243.452 275.217 239.478 287.863 234.683C300.131 230.03 311.863 223.884 321.717 216.348C332.042 208.449 340.155 199.019 343.889 187.857C345.603 182.736 345.805 177.535 345.323 172.286C352.895 172.908 360.504 173.35 368.119 173.539C368.234 176.502 368.316 179.46 367.84 182.418ZM217.969 84.1479C218.32 81.1325 218.878 78.4481 219.88 75.3399C221.665 69.8432 224.939 65.044 228.743 60.0683C232.367 55.3265 237.596 51.1896 242.791 47.2116C245.517 45.1233 247.877 43.7149 250.767 41.9489C253.351 40.3772 256.017 38.8849 258.755 37.4897C264.914 34.3594 271.275 31.5868 277.872 29.1055C284.441 26.6331 290.474 24.7611 297.421 22.8759C310.33 19.3748 323.765 16.792 337.254 15.2776C344.497 14.4652 351.537 13.8648 359.136 13.3659C366.34 12.8935 373.588 12.8891 380.809 12.9244C387.537 12.9641 394.293 13.2114 400.988 13.7323C408.204 14.2886 414.724 14.7964 421.682 15.8339C428.98 16.9156 436.184 18.1739 443.389 19.6264C450.237 21.0083 456.9 22.8538 463.535 24.77C470.186 26.6861 476.093 28.9113 482.603 31.472C488.521 33.7987 494.466 36.6155 499.782 39.7458C503.072 41.6796 505.546 43.2028 508.749 45.2558C511.563 47.0571 514.092 49.2161 516.649 51.247C521.565 55.1631 525.468 59.8166 529.114 64.7879C529.963 65.9491 530.62 67.2206 531.359 68.4304C531.758 69.0882 532.733 70.8586 533.143 71.9403C534.129 74.5452 535.224 77.181 535.7 79.8874C536.001 81.6225 536.193 82.7439 536.308 84.3069C536.417 85.8036 536.434 87.2473 536.39 88.7484C536.302 91.8213 535.689 94.2319 534.966 97.1547C534.654 98.4129 534.102 99.6536 533.664 100.885C533.439 101.539 533.056 102.175 532.76 102.81C532.563 103.225 532.366 103.64 532.169 104.055C532.114 104.179 532.06 104.298 531.999 104.417C531.999 104.422 531.994 104.426 531.994 104.431C531.983 104.448 531.966 104.479 531.945 104.515C530.488 107.053 529.032 109.583 527.143 111.932C523.229 116.784 519.298 121.062 513.922 125.018C508.218 129.212 502.962 132.572 496.557 136.073C491.044 139.084 484.973 141.831 478.913 144.047C475.201 145.407 472.332 146.444 468.708 147.654C465.73 148.647 462.708 149.61 459.648 150.435C452.756 152.29 445.841 153.923 438.806 155.385C431.821 156.842 424.66 157.791 417.554 158.753C416.219 158.934 414.954 159.062 413.229 159.243C411.664 159.411 410.098 159.605 408.521 159.734C404.815 160.043 401.12 160.347 397.397 160.55C382.999 161.345 368.694 161.191 354.302 160.4C347.152 160.012 340.314 159.19 333.608 158.321C326.951 157.455 320.288 156.391 313.757 155.027C307.018 153.619 300.345 152.078 293.792 150.171C286.823 148.144 280.686 146.175 274.155 143.566C270.826 142.232 267.602 140.811 264.361 139.345C255.875 135.645 247.127 132.387 237.853 130.188C232.898 129.014 227.95 127.954 222.891 127.102C217.948 126.267 212.96 125.676 207.962 125.097C203.489 124.585 198.852 124.303 194.336 124.184C189.332 124.051 184.334 123.95 179.325 124.082C169.312 124.347 159.469 125.256 149.598 126.616C144.874 127.27 140.127 128.281 135.518 129.34C130.519 130.493 125.653 131.888 120.786 133.354C116.373 134.678 112.109 136.427 107.97 138.228C103.82 140.038 99.7416 142.056 95.9915 144.378C92.0991 146.793 88.2998 149.371 85.0644 152.369C81.6264 155.552 78.8289 158.934 76.3818 162.665C74.1427 166.078 72.9821 170.047 72.5113 173.857C72.0405 177.663 72.358 181.597 73.743 185.27C76.5788 192.785 82.1026 199.654 89.4221 204.86C93.09 207.469 96.8674 209.959 101.023 212.061C105.468 214.312 109.979 216.299 114.703 218.145C123.605 221.624 133.169 223.871 142.728 225.8C152.067 227.686 161.746 228.714 171.343 229.226C181.099 229.747 190.986 229.889 200.73 229.107C205.515 228.723 210.3 228.348 215.041 227.699C220.23 226.984 225.349 226.127 230.462 225.103C239.972 223.2 249.12 220.427 257.95 217.01C262.116 215.403 266.173 213.482 269.983 211.376C274.018 209.151 277.926 206.802 281.392 204.003C285.049 201.05 288.257 197.91 291.049 194.396C293.529 191.279 295.527 187.553 296.425 183.915C296.868 182.127 297.159 180.365 297.416 178.55C297.662 176.798 297.356 174.917 297.169 173.173C296.852 170.127 295.664 167.213 294.284 164.387C302.452 166.299 310.724 167.91 319.068 169.213C319.588 171.482 320.113 173.239 320.075 175.628C320.053 176.842 320.097 178.065 319.965 179.275C319.872 180.065 319.79 180.86 319.697 181.65C319.675 181.849 319.626 182.109 319.664 181.963C319.588 182.29 319.506 182.617 319.429 182.943C318.214 187.985 316.286 192.184 313.204 196.515C310.292 200.608 307.062 204.136 302.77 207.549C300.536 209.328 298.253 211.01 295.899 212.679C293.299 214.52 291.164 215.646 288.432 217.226C283.554 220.056 278.195 222.343 272.852 224.542C271.675 225.028 270.476 225.469 269.277 225.92C268.456 226.229 267.634 226.538 266.813 226.847C266.611 226.922 266.424 226.988 266.611 226.931C266.304 227.028 266.003 227.129 265.702 227.226C262.603 228.251 259.505 229.235 256.368 230.18C245.287 233.505 233.731 235.571 222.125 237.257C216.092 238.132 210.595 238.577 204.316 239.037C198.579 239.452 192.77 239.717 187.011 239.681C180.901 239.646 174.814 239.575 168.721 239.244C165.589 239.072 162.474 238.825 159.354 238.582C158.166 238.485 156.989 238.352 155.806 238.229C154.799 238.123 153.797 238.017 152.795 237.911C152.483 237.88 152.171 237.845 151.859 237.814C151.826 237.814 151.804 237.809 151.788 237.809C151.771 237.805 151.733 237.8 151.646 237.787C139.903 236.242 128.176 234.33 116.915 231.165C113.784 230.282 110.691 229.359 107.592 228.401C107.318 228.317 107.05 228.233 106.776 228.149C106.749 228.136 106.727 228.131 106.716 228.127C106.694 228.118 106.667 228.109 106.629 228.096C105.78 227.8 104.937 227.505 104.088 227.204C102.889 226.785 101.68 226.379 100.497 225.924C95.1101 223.849 89.7396 221.703 84.7523 219.045C81.9658 217.562 79.2668 216.039 76.5788 214.44C76.3872 214.33 76.234 214.228 76.3653 214.317C76.1409 214.167 75.9164 214.021 75.692 213.871C74.8489 213.315 74.0058 212.758 73.1682 212.198C72.0952 211.487 71.0824 210.727 70.0587 209.968C67.9838 208.436 66.0075 206.811 64.1736 205.085C63.0951 204.065 62.1316 203.191 61.3706 202.356C60.5111 201.412 59.5914 200.489 58.8195 199.495C55.5402 195.297 52.7209 191.164 51.303 186.542C50.9416 185.363 50.5584 184.197 50.323 182.996C50.0219 181.42 49.8851 180.652 49.792 179.204C49.6332 176.67 49.7646 174.202 50.1314 171.685C50.2902 170.59 50.6022 169.495 50.9526 168.131C51.2537 166.961 51.7792 165.822 52.2227 164.683C53.1971 162.157 54.3358 160.462 55.7756 158.14C58.5512 153.654 62.1699 150.25 66.336 146.616C68.2138 144.983 70.2229 143.442 72.3197 141.998C74.6244 140.409 76.5077 139.053 79.1902 137.588C84.1063 134.894 89.0881 132.245 94.4094 130.095C97.382 128.894 100.349 127.755 103.388 126.669C103.727 126.55 104.061 126.426 104.4 126.307C104.608 126.232 104.762 126.179 104.587 126.237C105.337 125.989 106.087 125.742 106.837 125.495C108.118 125.071 109.393 124.607 110.702 124.232C116.685 122.488 122.702 120.978 128.828 119.588C134.291 118.347 139.919 117.482 145.503 116.669C148.7 116.206 151.897 115.83 155.122 115.473C155.434 115.442 155.746 115.406 156.058 115.371C156.08 115.367 156.096 115.367 156.113 115.362C156.118 115.362 156.14 115.362 156.184 115.358C157 115.283 157.821 115.208 158.637 115.133C160.137 114.996 161.631 114.815 163.131 114.722C174.973 114.002 186.885 113.53 198.754 114.254C205.071 114.643 211.137 115.093 217.022 115.751C222.612 116.373 228.273 117.106 233.763 118.17C239.983 119.376 246.103 120.722 252.207 122.267C258.043 123.746 263.403 125.596 268.675 127.482C272.769 128.947 276.695 130.687 280.625 132.422C285.952 134.789 291.328 136.912 296.896 138.886C302.376 140.828 308.102 142.36 313.807 143.808C325.177 146.687 336.92 148.396 348.701 149.707C360.521 151.018 372.504 151.151 384.412 151.009C396.308 150.868 408.133 149.522 419.837 147.91C425.668 147.107 431.405 145.848 437.104 144.594C442.595 143.385 448.031 141.91 453.325 140.215C464.258 136.713 475.135 132.471 484.519 126.669C494.039 120.784 502.853 113.919 508.223 105.124C510.851 100.819 512.685 96.3997 513.441 91.627C514.218 86.7175 513.627 81.9227 512.165 77.1324C509.428 68.1875 502.212 59.8431 493.88 53.6753C484.847 46.9865 474.725 41.7149 463.688 37.4279C453.248 33.3705 442.025 30.1696 430.732 28.0548C419.175 25.887 407.426 24.196 395.574 23.547C383.711 22.9024 371.82 22.6728 359.951 23.4675C348.083 24.2578 336.23 25.5161 324.668 27.8737C318.651 29.0967 312.75 30.4786 306.865 32.068C301.045 33.631 295.423 35.6442 289.85 37.7016C284.474 39.684 279.405 42.1785 274.428 44.7392C272.145 45.9136 269.95 47.2337 267.82 48.5891C265.521 50.0505 263.091 51.5031 261.021 53.1764C256.625 56.7261 252.629 60.3552 249.163 64.523C245.84 68.5231 243.585 73.022 241.937 77.6269C239.983 83.0839 240.245 88.8323 241.395 94.3688C235.663 93.5034 229.904 92.7838 224.123 92.2142C222.141 92.02 220.154 91.8345 218.161 91.6623C217.937 89.1723 217.674 86.6424 217.969 84.1479ZM343.845 172.157C344.097 174.665 344.327 177.169 344.037 179.69C343.834 181.442 343.708 182.577 343.369 184.127C343.046 185.628 342.635 187.045 342.143 188.52C340.298 194.016 337.172 198.816 333.263 203.765C329.535 208.484 324.444 212.621 319.21 216.621C314.179 220.471 309.011 223.425 303.29 226.357C290.972 232.657 278.545 237.107 264.87 240.904C252.076 244.454 238.57 247.046 225.168 248.551C217.789 249.377 210.71 249.99 202.997 250.458C196.038 250.878 189.058 250.948 182.078 250.913C175.356 250.873 168.6 250.679 161.905 250.167C154.487 249.597 147.737 249.094 140.62 248.039C133.366 246.966 126.194 245.734 119.034 244.33C112.218 242.993 105.539 241.129 98.9478 239.231C92.2634 237.306 86.3947 235.107 79.88 232.547C73.9401 230.211 67.9565 227.443 62.5969 224.321C56.7884 220.939 51.3522 217.381 46.0748 213.125C40.9506 208.983 37.0637 204.776 33.4834 199.796C31.5728 197.133 30.4012 194.855 29.0052 192.078C27.8172 189.707 26.9194 187.001 26.4431 184.467C25.8847 181.478 25.5563 179.005 25.6438 175.875C25.7369 172.678 26.257 170.06 26.9961 167.076C27.653 164.431 28.8683 161.915 30.0289 159.398C29.914 159.65 30.2643 159.005 30.3136 158.921C30.5654 158.488 30.8173 158.056 31.0691 157.623C31.403 157.049 31.7041 156.449 32.0819 155.888C32.8976 154.696 33.6257 153.433 34.5454 152.29C38.498 147.385 42.4123 143.168 47.7445 139.137C53.2793 134.956 58.4636 131.636 64.6882 128.184C70.4474 124.983 76.6883 122.382 82.9293 119.866C95.2251 114.894 109.108 111.393 122.8 108.528C129.501 107.124 136.361 106.17 143.187 105.283C146.33 104.877 149.56 104.545 153.091 104.17C156.397 103.817 159.742 103.596 163.071 103.393C177.611 102.515 192.064 102.568 206.604 103.367C220.269 104.117 233.265 105.799 246.678 108.51C260.315 111.265 274.165 114.771 286.39 119.707C290.2 121.248 293.95 122.837 297.695 124.484C306.131 128.162 314.819 131.446 324.055 133.619C328.971 134.771 333.882 135.844 338.891 136.687C343.884 137.53 348.887 138.17 353.94 138.718C363.351 139.742 372.981 140.042 382.468 139.791C392.558 139.526 402.467 138.577 412.419 137.217C422.191 135.879 431.739 133.393 440.985 130.563C445.283 129.248 449.471 127.61 453.516 125.848C457.715 124.016 461.772 122.042 465.588 119.711C469.519 117.309 473.411 114.802 476.641 111.764C478.382 110.126 480.03 108.462 481.65 106.749C483.128 105.194 484.229 103.358 485.329 101.623C487.464 98.2673 488.876 94.5939 489.402 90.8411C489.933 87.0221 489.884 82.9603 488.499 79.2384C487.76 77.2516 486.928 75.3752 485.959 73.4503C484.995 71.5341 483.533 69.7505 482.187 67.9977C480.977 66.4259 479.515 64.9557 478.01 63.5606C476.422 62.0948 474.812 60.5583 473.006 59.2691C469.25 56.598 465.391 54.1874 461.274 51.8872C457.13 49.5693 452.531 47.7724 448.02 45.971C439.212 42.4522 429.631 40.1123 420.122 38.1961C410.952 36.3462 401.388 35.1674 391.961 34.6685C386.771 34.3948 381.603 34.2005 376.408 34.2005C371.431 34.2005 366.477 34.4433 361.512 34.7038C351.783 35.2248 342.039 36.6111 332.59 38.5184C323.037 40.4434 313.648 43.0527 304.801 46.545C296.354 49.8827 287.989 53.9843 281.25 59.3398C277.636 62.214 274.324 65.2118 271.598 68.6732C269.091 71.852 266.791 75.4679 265.806 79.1854C265.286 81.1369 264.903 83.0133 264.623 84.9912C264.388 86.7042 264.601 88.4791 264.815 90.1833C265.22 93.446 266.331 96.435 267.777 99.4461C259.598 97.5255 251.304 95.914 242.933 94.6116C242.824 94.1436 242.72 93.6712 242.616 93.2032C242.528 92.8191 242.441 92.4394 242.358 92.0553C242.331 91.9493 242.309 91.8434 242.282 91.7374C242.282 91.7197 242.282 91.6932 242.276 91.6579C242.167 90.4614 241.975 89.2606 241.975 88.0597C241.975 86.8323 241.91 85.6049 242.068 84.3863C242.167 83.6181 242.265 82.8455 242.364 82.0773C242.38 81.9801 242.386 81.9316 242.386 81.9095C242.386 81.9007 242.397 81.8786 242.408 81.8256C242.49 81.4548 242.572 81.0839 242.654 80.713C243.771 75.671 245.884 71.4767 248.933 67.1412C251.802 63.0573 255.147 59.6135 259.384 56.1874C263.961 52.492 268.822 49.3662 273.81 46.5273C283.757 40.8584 294.569 36.9952 305.677 33.6928C316.757 30.3947 328.276 28.2534 339.876 26.5713C345.811 25.7059 351.247 25.2468 357.422 24.8318C363.247 24.4432 369.11 24.1077 374.957 24.143C380.995 24.1783 387.012 24.2799 393.045 24.6066C396.193 24.7788 399.33 25.0216 402.472 25.2689C403.633 25.3616 404.782 25.4896 405.937 25.6088C406.956 25.7148 407.979 25.8252 408.998 25.9311C409.343 25.9664 409.687 26.0062 410.032 26.0415C410.169 26.0547 410.224 26.0592 410.251 26.0636C410.229 26.0592 410.207 26.0592 410.268 26.068C422.098 27.6133 433.726 29.6 445.108 32.6861C448.272 33.5471 451.359 34.4742 454.464 35.4588C454.737 35.5471 455.006 35.6354 455.279 35.7193C455.312 35.7281 455.334 35.7369 455.345 35.7369C455.367 35.7458 455.389 35.7546 455.427 35.7678C456.265 36.0592 457.108 36.3462 457.945 36.6376C459.139 37.0526 460.343 37.45 461.515 37.9047C466.918 40.0063 472.376 42.1697 477.385 44.8496C480.139 46.3242 482.816 47.8386 485.482 49.4236C485.668 49.534 485.827 49.6355 485.696 49.5472C485.915 49.6973 486.139 49.843 486.358 49.9887C487.19 50.5362 488.022 51.0836 488.849 51.6355C489.922 52.3419 490.924 53.1013 491.948 53.8519C494.028 55.3971 496.059 57.0042 497.888 58.7482C499.858 60.6422 501.528 62.1301 503.242 64.3288C506.493 68.501 509.296 72.6909 510.698 77.2781C512.214 82.2406 512.762 86.6513 511.941 91.8389C511.601 93.9758 510.84 96.4615 509.948 98.8412C509.521 99.9759 508.913 101.053 508.36 102.152C508.048 102.771 508.158 102.576 507.835 103.102C507.369 103.861 506.904 104.625 506.439 105.384C503.756 109.782 500.258 113.248 496.207 116.775C494.335 118.413 492.353 119.985 490.256 121.433C487.732 123.173 485.844 124.55 483.013 126.126C478.25 128.78 473.384 131.411 468.199 133.504C465.336 134.66 462.478 135.795 459.566 136.859C458.865 137.115 458.164 137.371 457.464 137.627C457.447 137.632 457.431 137.641 457.425 137.641C457.398 137.649 457.365 137.663 457.321 137.676C456.949 137.795 456.577 137.914 456.204 138.034C454.677 138.519 453.15 139.009 451.622 139.499C445.89 141.336 439.951 142.744 434.011 144.051C428.585 145.248 423.095 146.268 417.549 147.031C414.297 147.482 411.056 147.892 407.793 148.276C407.125 148.356 406.463 148.431 405.795 148.51C405.992 148.488 405.85 148.502 405.62 148.524C405.198 148.559 404.777 148.594 404.355 148.63C402.56 148.784 400.764 148.939 398.974 149.093C387.132 150.104 375.225 149.967 363.356 149.61C360.729 149.53 358.079 149.341 355.468 149.115C353.53 148.948 351.597 148.784 349.659 148.621C349.577 148.612 348.98 148.555 349.396 148.599C349.199 148.581 349.008 148.559 348.816 148.537C347.809 148.422 346.802 148.312 345.794 148.201C340.084 147.566 334.32 146.842 328.719 145.747C322.621 144.555 316.593 143.274 310.609 141.76C308.124 141.129 305.644 140.427 303.219 139.649C299.956 138.603 297.492 137.813 294.487 136.744C289.987 135.151 285.678 133.314 281.375 131.398C276.06 129.053 270.7 126.916 265.165 124.939C259.674 122.974 253.915 121.459 248.2 120.011C236.785 117.12 224.993 115.455 213.163 114.135C201.36 112.819 189.376 112.669 177.491 112.81C165.649 112.952 153.792 114.272 142.164 115.963C130.804 117.61 119.318 120.104 108.632 123.636C97.5791 127.287 86.6575 131.482 77.1318 137.371C67.5185 143.314 59.0111 150.285 53.5475 159.102C50.8376 163.478 49.1898 168.1 48.489 172.952C47.7774 177.866 48.604 182.634 50.0602 187.403C51.4836 192.052 54.6041 196.312 57.7301 200.321C60.7575 204.202 64.8634 207.73 69.0295 210.816C78.057 217.496 88.3929 222.582 99.4131 226.82C109.727 230.785 120.797 233.805 131.921 235.889C143.543 238.065 155.313 239.712 167.237 240.357C179.051 241.001 191.035 241.196 202.843 240.335C214.871 239.456 226.811 238.114 238.537 235.747C250.368 233.359 261.716 230.078 272.764 225.915C283.215 221.981 293.48 216.621 301.708 210.074C303.805 208.405 306.033 206.732 307.839 204.846C309.788 202.811 311.617 200.776 313.396 198.643C316.708 194.657 318.69 190.113 320.31 185.539C322.161 180.312 321.712 174.745 320.611 169.451C326.349 170.316 332.113 171.04 337.911 171.606C339.882 171.804 341.858 171.985 343.845 172.157ZM276.492 65.1632C276.498 65.1588 276.509 65.15 276.514 65.1456C276.558 65.097 276.684 64.9866 276.492 65.1632ZM296.655 102.382C295.987 101.548 295.325 100.718 294.662 99.8876C294.033 99.0973 293.562 98.1966 293.02 97.3666C293.2 97.6447 292.943 97.2121 292.905 97.1414C292.773 96.8721 292.637 96.6028 292.5 96.3379C292.253 95.8522 292.007 95.371 291.766 94.8853C291.345 94.0553 291.153 93.0928 290.857 92.2275C290.731 91.8434 290.682 91.4372 290.6 91.0487C290.529 90.7308 290.463 90.4173 290.392 90.0994C290.37 90.0067 290.272 89.3709 290.293 89.6932C290.222 88.8146 290.02 87.8742 290.085 86.9956C290.129 86.4482 290.173 85.9051 290.217 85.3621C290.239 85.0883 290.261 84.8146 290.283 84.5409C290.288 84.4702 290.288 84.4305 290.288 84.4128C290.293 84.3908 290.299 84.3599 290.315 84.3025C290.704 82.5144 291.033 80.6159 291.887 78.9249C292.166 78.3775 292.439 77.83 292.719 77.2825C292.817 77.0839 292.921 76.8852 293.02 76.6821C293.069 76.607 293.118 76.532 293.173 76.4525C293.699 75.6446 294.164 74.7836 294.783 74.0154C295.171 73.5253 295.56 73.0397 295.949 72.5496C296.135 72.32 296.315 72.0904 296.502 71.8609C296.551 71.799 296.6 71.7372 296.655 71.671C296.66 71.6622 296.666 71.6534 296.666 71.6534C297.432 70.8675 298.193 70.086 298.96 69.3045C300.443 67.7858 302.305 66.4701 304.045 65.1632C304.817 64.5804 305.639 64.0551 306.46 63.5208C306.958 63.1941 307.462 62.863 307.96 62.5363C307.965 62.5363 307.965 62.5363 307.965 62.5319C307.987 62.523 308.014 62.5054 308.058 62.4833C308.337 62.3244 308.611 62.1698 308.89 62.0065C312.651 59.8652 316.533 57.949 320.683 56.3331C321.411 56.0462 322.139 55.7636 322.861 55.481C323.152 55.3707 323.436 55.2603 323.721 55.1499C323.874 55.0881 324.203 54.9689 323.929 55.0616C325.194 54.6422 326.458 54.2227 327.728 53.8077C329.612 53.1808 331.555 52.5936 333.498 52.0991C338.108 50.9247 342.712 49.9357 347.442 49.1057C349.741 48.6995 352.063 48.3684 354.378 48.024C354.597 47.9931 354.647 47.9843 354.46 48.0064C354.63 47.9887 354.805 47.971 354.975 47.949C355.752 47.8651 356.535 47.7812 357.313 47.6973C358.287 47.5958 359.256 47.4677 360.236 47.3927C365.032 47.0306 369.8 46.7437 374.618 46.673C379.287 46.6024 383.93 46.7657 388.589 46.9776C390.669 47.0704 392.777 47.247 394.846 47.4677C396.335 47.6311 397.824 47.79 399.319 47.949C399.488 47.9666 399.664 47.9843 399.833 48.0064C399.642 47.9843 399.696 47.9887 399.91 48.024C400.611 48.1256 401.306 48.2315 402.007 48.3331C406.638 49.0262 411.209 49.8872 415.775 50.8187C419.651 51.6134 423.533 52.8011 427.228 54.0241C428.284 54.3729 429.341 54.7216 430.392 55.0704C430.036 54.9512 430.403 55.0793 430.474 55.1058C430.737 55.2117 431 55.3133 431.263 55.4148C431.991 55.6974 432.713 55.9799 433.441 56.2625C435.27 56.9777 437.049 57.7636 438.845 58.5318C440.788 59.5076 442.715 60.4744 444.582 61.5385C446.394 62.5716 447.922 63.4105 449.739 64.7791C451.611 66.1831 453.38 67.6003 455.121 69.1191C455.887 69.7858 456.549 70.5496 457.25 71.2648C457.398 71.4149 457.546 71.565 457.694 71.7152C457.573 71.596 457.672 71.7107 457.792 71.8609C458.23 72.4083 458.668 72.9602 459.106 73.5077C460.464 75.2075 461.236 76.6159 462.095 78.3112C462.971 80.0375 463.486 81.8168 463.852 83.6579C463.902 83.9007 463.945 84.1435 464 84.3863C464 84.3952 464 84.3996 464 84.4084C464 84.4261 464.006 84.4658 464.011 84.5409C464.06 85.1899 464.11 85.8389 464.164 86.4879C464.241 87.4239 464.104 88.3599 464.028 89.2915C464.022 89.3665 463.956 89.8875 464.017 89.5652C463.984 89.7418 463.945 89.9184 463.913 90.0994C463.787 90.7396 463.655 91.3754 463.529 92.0155C463.349 92.9162 462.916 93.8125 462.599 94.6911C462.287 95.5608 461.756 96.3997 461.334 97.2385C461.29 97.3224 461.252 97.3887 461.236 97.424C461.126 97.5873 461.017 97.7595 460.907 97.9229C460.535 98.4924 460.168 99.0664 459.79 99.6403C459.259 100.457 458.569 101.217 457.951 101.994C457.841 102.13 457.726 102.272 457.617 102.409C457.83 102.144 457.502 102.528 457.442 102.585C456.933 103.106 456.423 103.627 455.914 104.148C454.606 105.495 453.111 106.74 451.557 107.905C450.763 108.497 449.996 109.115 449.159 109.662C448.557 110.055 447.96 110.448 447.358 110.841C447.095 111.013 446.832 111.186 446.569 111.358C446.432 111.446 446.12 111.632 446.35 111.504C442.584 113.649 438.763 115.711 434.596 117.336C433.337 117.826 432.078 118.316 430.814 118.806C430.638 118.877 430.458 118.947 430.277 119.018C430.25 119.027 430.211 119.04 430.173 119.053C429.5 119.274 428.832 119.495 428.158 119.716C425.887 120.466 423.587 121.142 421.272 121.808C417.16 123.005 412.895 123.923 408.631 124.674C406.162 125.106 403.704 125.49 401.218 125.839C400.715 125.91 400.216 125.981 399.713 126.051C399.877 126.029 399.872 126.038 399.642 126.06C399.33 126.095 399.023 126.126 398.716 126.162C397.288 126.316 395.864 126.471 394.441 126.621C385.205 127.614 375.789 127.521 366.51 127.106C364.342 127.009 362.174 126.802 360.012 126.638C358.84 126.55 357.668 126.387 356.502 126.263C355.884 126.197 355.265 126.126 354.647 126.06C354.422 126.038 354.411 126.029 354.575 126.051C354.351 126.02 354.126 125.989 353.907 125.958C348.997 125.265 344.185 124.431 339.367 123.407C335.19 122.524 331.051 121.34 327.06 120.025C326.332 119.786 325.604 119.543 324.882 119.305C324.624 119.221 324.372 119.137 324.121 119.053C324.071 119.036 324.033 119.027 324.006 119.018C324.006 119.018 324 119.014 323.967 119C322.681 118.501 321.394 117.998 320.108 117.495C318.296 116.793 316.478 116.029 314.77 115.172C312.569 114.069 310.456 112.938 308.343 111.733C308.201 111.649 308.058 111.565 307.91 111.486C308.233 111.671 307.79 111.402 307.724 111.358C307.089 110.943 306.454 110.528 305.819 110.108C305.009 109.583 304.253 109.04 303.487 108.466C301.867 107.256 300.197 106.011 298.828 104.607C298.39 104.161 297.947 103.711 297.509 103.261C297.29 103.036 297.071 102.81 296.852 102.585C296.731 102.466 296.513 102.205 296.655 102.382ZM293.025 76.6821C293.031 76.6733 293.036 76.6644 293.036 76.6556C293.069 76.5982 293.168 76.4658 293.025 76.6821ZM461.23 97.4284C461.208 97.4593 461.214 97.4549 461.23 97.4284V97.4284ZM430.283 119.018C430.381 118.978 430.387 118.983 430.283 119.018V119.018ZM558.682 99.1547C557.45 102.625 556.12 105.786 554.401 108.881C552.715 111.905 550.591 114.718 548.434 117.535C544.372 122.815 538.848 127.402 533.16 131.879C527.056 136.691 520.574 140.294 513.501 144.1C507.293 147.442 500.499 150.466 493.699 152.952C479.055 158.303 463.267 162.851 447.188 165.919C431.334 168.943 416.032 170.829 399.915 171.742C389.711 172.316 379.397 172.59 369.121 172.396C368.93 172.334 368.711 172.33 368.524 172.387C362.842 172.268 357.17 172.012 351.531 171.579C343.002 170.93 335.146 170.153 326.918 169.169C324.673 168.899 322.44 168.586 320.206 168.237C320.042 168.127 319.818 168.1 319.599 168.144C314.02 167.261 308.474 166.188 302.961 165.138C299.825 164.537 296.677 163.857 293.545 163.107C293.381 162.996 293.162 162.952 292.96 162.965C288.7 161.937 284.485 160.78 280.379 159.544C272.567 157.19 265.549 154.917 258.224 151.985C254.523 150.506 250.915 148.943 247.297 147.332C243.081 145.455 238.838 143.817 234.388 142.347C230.369 141.018 226.165 139.989 221.971 139.089C213.163 137.199 204.07 135.919 194.96 135.508C185.779 135.093 176.374 135.005 167.242 136.06C162.458 136.612 157.706 137.221 152.976 138.051C148.777 138.789 144.479 139.658 140.434 140.842C135.797 142.201 131.302 143.68 126.851 145.393C122.724 146.983 118.902 149.049 115.185 151.182C111.671 153.199 108.254 155.641 105.55 158.36C103.962 159.959 102.539 161.535 101.17 163.257C99.9277 164.815 99.0956 166.621 98.2306 168.325C96.4678 171.791 96.2981 175.61 96.5225 179.288C96.632 181.138 97.382 183.01 97.9842 184.785C98.581 186.542 99.7744 188.237 100.804 189.844C101.822 191.434 103.196 192.873 104.559 194.268C105.884 195.623 107.302 196.948 108.868 198.122C112.349 200.741 116.012 203.058 120.036 205.107C120.829 205.513 121.623 205.915 122.417 206.317C122.521 206.37 122.62 206.396 122.718 206.405C129.955 209.765 137.729 212.158 145.728 214.114C154.58 216.273 163.783 217.297 172.963 217.999C182.15 218.701 191.473 218.401 200.648 217.703C209.807 217.01 218.78 215.407 227.566 213.24C231.7 212.22 235.756 210.935 239.676 209.465C243.826 207.906 247.91 206.202 251.676 204.087C255.59 201.888 259.319 199.557 262.57 196.723C264.07 195.416 265.56 194.061 266.769 192.568C268.056 190.988 269.534 189.345 270.394 187.575C271.209 185.888 272.26 184.087 272.622 182.29C272.978 180.511 273.525 178.577 273.388 176.767C273.24 174.948 273.229 172.957 272.583 171.191C271.937 169.429 271.363 167.504 270.284 165.875C269.134 164.131 267.925 162.48 266.6 160.815C265.335 159.23 263.616 157.817 262.05 156.427C260.572 155.124 258.946 153.95 257.238 152.846C268.1 157.137 279.306 160.745 290.945 163.592C291.465 163.716 291.985 163.84 292.505 163.963C293.425 165.813 294.191 167.601 294.876 169.526C295.21 170.475 295.368 171.482 295.609 172.453C295.626 172.506 295.631 172.542 295.642 172.564C295.642 172.572 295.642 172.586 295.642 172.599C295.669 172.842 295.697 173.085 295.719 173.327C295.79 173.999 295.861 174.67 295.932 175.336C296.365 179.504 295.357 183.019 293.835 186.939C293.474 187.862 292.96 188.74 292.494 189.632C292.379 189.853 292.264 190.078 292.149 190.299C292.149 190.303 292.144 190.303 292.144 190.308C292.138 190.312 292.116 190.339 292.056 190.431C291.668 191.036 291.273 191.641 290.885 192.246C289.828 193.88 288.569 195.438 287.178 196.899C285.613 198.555 284.479 199.835 282.525 201.412C280.631 202.944 278.731 204.418 276.722 205.849C276.476 206.025 276.229 206.202 275.983 206.374C275.824 206.489 275.698 206.573 275.863 206.471C275.332 206.794 274.806 207.116 274.28 207.438C273.405 207.972 272.545 208.533 271.636 209.032C269.441 210.246 267.251 211.421 264.979 212.538C261.043 214.467 256.954 216.224 252.716 217.694C251.315 218.176 249.913 218.661 248.512 219.147C248.506 219.151 248.506 219.151 248.495 219.156C248.49 219.156 248.474 219.16 248.446 219.169C248.244 219.231 248.036 219.297 247.828 219.359C247.012 219.606 246.202 219.853 245.386 220.105C242.95 220.851 240.486 221.504 238.012 222.162C233.753 223.301 229.291 224.233 224.9 224.975C219.814 225.831 214.729 226.586 209.577 227.147C208.854 227.222 208.132 227.301 207.409 227.381C207.267 227.399 207.119 227.412 206.971 227.429C207.398 227.381 206.812 227.438 206.719 227.443C205.115 227.571 203.506 227.699 201.902 227.831C199.477 228.021 197.046 228.118 194.621 228.251C185.122 228.754 175.46 228.449 166 227.69C164.642 227.584 163.284 227.474 161.927 227.368C162.337 227.399 161.861 227.359 161.773 227.346C161.489 227.315 161.199 227.279 160.908 227.248C160 227.142 159.091 227.037 158.182 226.931C155.642 226.639 153.113 226.286 150.578 225.937C146.133 225.323 141.589 224.489 137.258 223.465C132.255 222.277 127.311 221.028 122.433 219.522C121.87 219.35 121.3 219.173 120.736 218.997C120.72 218.992 120.709 218.988 120.698 218.988C120.687 218.983 120.682 218.979 120.665 218.975C120.381 218.873 120.096 218.772 119.811 218.67C118.437 218.184 117.068 217.699 115.7 217.213C113.707 216.507 111.72 215.721 109.815 214.873C107.4 213.8 105.057 212.701 102.72 211.522C101.871 211.089 101.045 210.648 100.212 210.193C99.5281 209.813 98.8437 209.434 98.154 209.054C97.9295 208.93 97.6996 208.807 97.4751 208.679C97.4094 208.643 97.3766 208.626 97.3656 208.621C97.3547 208.613 97.3382 208.604 97.3218 208.595C93.4897 206.18 89.5699 203.712 86.3892 200.718C85.8582 200.215 85.3217 199.712 84.7906 199.208C84.5717 199.001 84.3472 198.793 84.1282 198.586C84.068 198.533 84.0133 198.476 83.953 198.423C83.1319 197.522 82.3052 196.621 81.484 195.725C80.0114 194.109 78.8836 192.272 77.7559 190.498C77.6519 190.339 77.5478 190.175 77.4493 190.016C77.4493 190.016 77.3836 189.915 77.3234 189.791C77.0004 189.151 76.6774 188.506 76.3544 187.866C75.9055 186.966 75.5715 186.043 75.2212 185.111C74.8653 184.171 74.6354 183.235 74.3945 182.264C74.3233 181.968 74.2522 181.676 74.181 181.381C74.1317 181.195 74.1098 181.036 74.1263 181.195C74.0551 180.595 73.9784 179.999 73.9073 179.398C73.6664 177.495 73.7649 175.588 74.0003 173.69C74.0606 173.191 74.1208 172.692 74.1865 172.197C74.1427 172.524 74.2412 172.003 74.2631 171.932C74.3507 171.561 74.4438 171.191 74.5314 170.82C74.7723 169.84 75.046 168.939 75.4237 167.985C76.9292 164.175 78.7358 160.93 81.7687 157.614C82.2121 157.129 82.661 156.639 83.11 156.149C83.3454 155.892 83.5808 155.636 83.8162 155.376C83.8764 155.31 84.3417 154.842 84.0844 155.08C85.0096 154.224 85.9293 153.367 86.8545 152.515C88.3108 151.168 90.0243 149.959 91.6721 148.767C93.6922 147.301 95.2579 146.321 97.5737 144.881C99.3802 143.764 101.351 142.771 103.289 141.804C107.379 139.76 111.638 137.791 116.067 136.259C117.441 135.782 118.809 135.31 120.183 134.833C120.441 134.744 120.698 134.656 120.955 134.568C121.163 134.497 121.224 134.484 121.054 134.532C121.64 134.356 122.22 134.184 122.806 134.007C125.357 133.239 127.908 132.51 130.487 131.804C139.547 129.318 149.133 127.671 158.609 126.643C159.452 126.55 160.301 126.462 161.149 126.369C161.461 126.334 161.773 126.298 162.085 126.263C162.179 126.254 162.781 126.201 162.354 126.237C163.739 126.126 165.129 126.011 166.52 125.901C169.071 125.694 171.628 125.565 174.195 125.433C178.821 125.186 183.551 125.084 188.188 125.208C192.962 125.331 197.736 125.446 202.493 125.83C205.471 126.069 207.464 126.232 210.168 126.541C212.763 126.841 215.347 127.177 217.937 127.535C227.501 128.855 236.977 130.921 246.037 133.72C246.924 133.989 247.811 134.268 248.698 134.537C248.764 134.559 248.791 134.568 248.802 134.568C248.824 134.577 248.862 134.59 248.911 134.608C249.344 134.758 249.776 134.908 250.209 135.058C251.632 135.548 253.072 136.007 254.457 136.555C257.55 137.778 260.583 139.049 263.616 140.365C275.66 145.817 288.476 150.524 301.79 153.597C308.869 155.23 315.936 156.705 323.135 157.959C329.951 159.146 336.865 159.972 343.769 160.709C350.404 161.416 357.121 161.844 363.805 162.065C371.01 162.299 378.275 162.533 385.479 162.259C399.516 161.72 413.399 160.731 427.211 158.581C440.87 156.453 454.568 153.641 467.449 149.341C480.818 144.881 493.497 139.645 505.114 132.634C515.866 126.148 526.038 117.614 531.731 107.689C533.22 105.093 534.627 102.488 535.591 99.7286C536.581 96.9074 537.233 94.0994 537.66 91.1899C538.426 85.9316 537.786 80.1479 535.864 75.0794C533.844 69.7372 531.151 64.5849 527.176 59.9755C523.202 55.3662 518.855 51.0042 513.665 47.2337C508.18 43.2469 502.404 39.6928 496.234 36.4213C490.344 33.2998 484.064 30.7303 477.736 28.2446C465.106 23.2777 451.464 20.0282 437.881 17.2865C431.279 15.9575 424.551 14.9686 417.823 14.1738C411.171 13.3924 404.465 12.6418 397.747 12.3107C383.18 11.5955 368.7 11.5469 354.143 12.505C340.478 13.4056 326.579 14.9995 313.325 17.8781C306.306 19.4013 299.398 21.0878 292.511 22.9554C285.903 24.7479 279.558 27.1629 273.251 29.5338C260.594 34.2932 248.862 40.9158 238.756 48.6554C233.714 52.5185 229.346 57.0086 225.699 61.7725C222.004 66.6025 219.519 71.7549 217.745 77.2296C216.223 81.9139 216.289 86.7572 216.677 91.5431C209.117 90.9118 201.497 90.4526 193.882 90.2584C193.772 87.2959 193.756 84.3687 194.194 81.415C194.675 78.1479 195.639 74.9293 196.838 71.5341C198.918 65.6577 202.876 59.8475 207.447 54.704C216.683 44.3198 229.34 35.5603 242.977 28.8539C257.386 21.7677 271.926 16.814 287.819 12.4476C303.148 8.23119 319.259 5.81616 335.234 3.90445C350.688 2.05454 367.67 1.5424 383.787 1.70575C399.855 1.86911 415.698 3.23336 431.164 5.45413C447.067 7.73671 462.785 11.0568 477.889 15.697C492.435 20.1651 506.97 25.8605 519.857 33.4588C526.136 37.163 532.602 41.3043 538.098 46.1564C543.808 51.194 548.51 56.0947 552.54 62.1831C556.197 67.7063 558.994 74.1037 559.892 80.17C560.834 86.5497 560.795 93.1723 558.682 99.1547ZM252.404 151.389C252.941 151.694 253.472 152.003 254.008 152.307C254.058 152.334 254.085 152.352 254.101 152.36C254.342 152.515 254.589 152.669 254.829 152.824C255.716 153.398 256.674 153.932 257.507 154.559C259.39 155.972 261.153 157.398 262.888 158.934C264.618 160.471 265.521 161.654 266.819 163.288C267.432 164.056 267.946 164.859 268.483 165.672C268.636 165.897 268.789 166.127 268.937 166.356C268.981 166.422 269.003 166.453 269.014 166.466C269.014 166.471 269.019 166.475 269.019 166.484C269.304 167.063 269.583 167.645 269.868 168.224C270.717 169.968 271.226 171.742 271.598 173.588C271.642 173.8 271.68 174.012 271.724 174.224C271.696 174.074 271.718 174.228 271.729 174.422C271.784 175.085 271.833 175.743 271.888 176.405C271.959 177.328 271.806 178.264 271.729 179.186C271.713 179.381 271.696 179.526 271.724 179.381C271.68 179.592 271.642 179.804 271.598 180.016C271.472 180.639 271.346 181.257 271.226 181.875C271.045 182.776 270.596 183.672 270.284 184.546C269.961 185.438 269.441 186.303 269.019 187.169C269.019 187.177 269.014 187.182 269.014 187.186C269.003 187.2 268.981 187.23 268.937 187.297C268.784 187.526 268.636 187.756 268.483 187.981C268.127 188.528 267.766 189.072 267.404 189.615C266.331 191.235 264.831 192.71 263.446 194.162C263.304 194.312 263.162 194.458 263.019 194.608C263.123 194.498 263.041 194.577 262.888 194.714C262.346 195.186 261.804 195.654 261.262 196.127C260.545 196.754 259.8 197.332 259.023 197.915C258.251 198.493 257.496 199.076 256.674 199.61C256.061 200.012 255.448 200.414 254.829 200.816C254.605 200.961 254.386 201.107 254.162 201.253C254.134 201.275 254.112 201.288 254.096 201.297C254.079 201.306 254.052 201.323 254.003 201.35C250.253 203.456 246.41 205.646 242.254 207.2C240.968 207.685 239.676 208.167 238.384 208.652C238.242 208.705 238.094 208.763 237.951 208.816C238.318 208.679 237.869 208.842 237.787 208.873C237.087 209.107 236.386 209.345 235.685 209.584C233.44 210.348 231.169 211.005 228.88 211.672C224.774 212.86 220.46 213.743 216.207 214.493C213.77 214.922 211.34 215.288 208.887 215.637C208.4 215.703 207.918 215.769 207.431 215.84C207.606 215.813 207.579 215.822 207.36 215.849C207.048 215.88 206.741 215.915 206.435 215.946C205.006 216.1 203.582 216.251 202.154 216.405C192.918 217.398 183.502 217.306 174.228 216.891C172.071 216.794 169.925 216.586 167.779 216.423C166.607 216.334 165.436 216.171 164.27 216.047C163.651 215.981 163.033 215.915 162.419 215.849C162.195 215.822 162.173 215.813 162.343 215.84C162.129 215.809 161.916 215.778 161.702 215.747C156.835 215.067 152.062 214.251 147.282 213.226C143.116 212.334 138.983 211.248 135.008 209.897C134.275 209.65 133.541 209.403 132.813 209.151C132.534 209.058 132.26 208.966 131.981 208.873C131.855 208.824 131.647 208.749 131.696 208.767C130.487 208.312 129.277 207.862 128.061 207.407C126.288 206.741 124.508 205.977 122.855 205.138C120.972 204.18 119.105 203.222 117.276 202.197C117.041 202.061 116.8 201.928 116.565 201.796C116.083 201.513 115.601 201.231 115.13 200.939C115.016 200.869 114.906 200.793 114.797 200.723C114.337 200.423 113.866 200.127 113.395 199.827C112.875 199.473 112.355 199.107 111.835 198.723C110.094 197.403 108.441 196.069 106.815 194.648C106.738 194.582 106.661 194.506 106.59 194.44C105.824 193.654 105.057 192.873 104.291 192.087C104.537 192.339 104.192 191.941 104.143 191.884C103.946 191.641 103.749 191.403 103.557 191.16C103.305 190.851 103.054 190.546 102.802 190.237C102.183 189.473 101.701 188.657 101.187 187.849C101.055 187.641 100.924 187.438 100.787 187.23C100.765 187.191 100.754 187.177 100.749 187.173C100.743 187.155 100.732 187.138 100.716 187.111C100.601 186.877 100.481 186.643 100.366 186.414C100.19 186.069 100.015 185.725 99.8401 185.381C98.9697 183.663 98.5372 181.84 98.1375 180.021C98.0883 179.809 98.0445 179.597 97.9952 179.385C98.028 179.526 98.0061 179.389 97.9952 179.191C97.9623 178.656 97.9295 178.118 97.8967 177.584C97.8912 177.473 97.8857 177.358 97.8802 177.244C97.8529 176.846 97.8638 176.445 97.8802 176.047C97.9021 175.857 97.9185 175.663 97.935 175.478C97.9514 175.169 97.9678 174.855 97.9897 174.546C97.9952 174.405 98.028 174.131 98.0116 174.171C98.0116 174.175 98.0061 174.188 98.0007 174.228C98.0445 174.016 98.0937 173.804 98.1375 173.592C98.2744 172.974 98.4113 172.352 98.5481 171.734C98.7452 170.851 99.1394 169.972 99.4405 169.107C99.4514 169.067 99.4733 169.027 99.4843 168.987C99.5007 168.961 99.5116 168.935 99.5281 168.904C99.7799 168.4 100.037 167.897 100.294 167.394C100.42 167.138 100.552 166.886 100.678 166.634C100.705 166.586 100.727 166.542 100.749 166.493C100.76 166.484 100.771 166.466 100.793 166.431C100.924 166.224 101.055 166.016 101.187 165.813C101.548 165.244 101.915 164.678 102.276 164.113C102.315 164.051 102.353 163.994 102.391 163.937C102.397 163.928 102.402 163.919 102.408 163.91C102.758 163.478 103.103 163.045 103.442 162.612C103.65 162.356 103.858 162.096 104.061 161.84C104.105 161.782 104.368 161.477 104.368 161.46C104.433 161.389 104.499 161.323 104.565 161.252C105.112 160.705 105.66 160.157 106.202 159.605C107.203 158.599 108.282 157.645 109.421 156.731C109.442 156.714 109.47 156.696 109.492 156.674C109.552 156.63 109.607 156.586 109.661 156.541C110.264 156.069 110.882 155.605 111.495 155.146C112.251 154.577 113.028 154.06 113.838 153.539C114.156 153.336 114.479 153.129 114.802 152.921C115.043 152.767 115.289 152.608 115.536 152.453C115.612 152.4 115.683 152.36 115.716 152.343C116.603 151.835 117.495 151.327 118.393 150.828C121.443 149.146 124.596 147.583 127.93 146.299C129.2 145.813 130.476 145.323 131.746 144.833C131.768 144.824 131.784 144.82 131.789 144.815C131.795 144.811 131.8 144.811 131.811 144.806C132.041 144.731 132.266 144.656 132.496 144.581C132.852 144.462 133.213 144.347 133.569 144.228C133.618 144.21 133.667 144.193 133.711 144.179C136.027 143.411 138.364 142.718 140.718 142.029C141.726 141.733 142.739 141.46 143.762 141.195C143.888 141.164 144.014 141.133 144.14 141.102C144.315 141.058 144.485 141.014 144.66 140.974C147.857 140.201 151.142 139.597 154.372 139.027C155.461 138.837 156.551 138.661 157.64 138.497C160.832 138.025 164.034 137.627 167.226 137.261C167.472 137.23 167.713 137.204 167.96 137.173C167.549 137.221 168.014 137.177 168.102 137.168C168.381 137.151 168.66 137.128 168.94 137.106C169.339 137.076 169.733 137.045 170.133 137.014C170.182 137.009 170.232 137.005 170.281 137.005C170.691 136.974 171.097 136.943 171.502 136.912C172.367 136.846 173.221 136.775 174.086 136.736C176.363 136.63 178.635 136.524 180.918 136.484C183.787 136.449 186.65 136.457 189.507 136.519C189.54 136.519 189.568 136.524 189.595 136.524C189.989 136.532 190.383 136.546 190.772 136.555C192.283 136.599 193.799 136.652 195.31 136.718C196.148 136.758 196.98 136.811 197.812 136.872C198.157 136.899 198.508 136.93 198.852 136.956C199.619 137.014 200.391 137.071 201.157 137.128C201.393 137.146 201.623 137.164 201.858 137.181C201.874 137.181 201.891 137.186 201.907 137.186C201.913 137.186 201.918 137.186 201.924 137.186C201.946 137.19 201.956 137.19 201.967 137.19C202.192 137.217 202.422 137.243 202.646 137.27C203.473 137.363 204.294 137.46 205.115 137.552C205.373 137.583 205.63 137.61 205.887 137.641C206.741 137.742 207.595 137.848 208.438 137.963C210.513 138.259 212.566 138.577 214.619 138.921C217.28 139.38 219.924 139.888 222.568 140.449C224.824 140.939 227.079 141.477 229.307 142.087C229.581 142.162 229.855 142.237 230.128 142.316C230.189 142.334 230.254 142.352 230.315 142.369C231.705 142.767 233.085 143.19 234.437 143.641C235.253 143.91 236.068 144.179 236.878 144.444C237.218 144.555 237.552 144.669 237.891 144.78C237.935 144.793 237.968 144.806 238.001 144.815C238.17 144.881 238.34 144.948 238.51 145.014C239.249 145.296 239.988 145.583 240.733 145.866C242.72 146.634 244.63 147.499 246.557 148.36C248.545 149.336 250.505 150.299 252.404 151.389ZM238.034 144.828C238.023 144.824 238.006 144.82 237.995 144.815C238.001 144.815 238.006 144.815 238.006 144.82C238.017 144.824 238.023 144.824 238.034 144.828Z" fill="url(#paint0_linear_1708_8637)" fill-opacity="0.57"/>
<defs>
<linearGradient id="paint0_linear_1708_8637" x1="519.5" y1="23.5685" x2="73.1881" y2="344.144" gradientUnits="userSpaceOnUse">
<stop stop-color="#097B45" stop-opacity="0.56"/>
<stop offset="1" stop-color="#6AFFB9" stop-opacity="0.25"/>
</linearGradient>
</defs>
</svg>
