<svg width="135" height="37" viewBox="0 0 135 37" fill="none" xmlns="http://www.w3.org/2000/svg">
<mask id="path-1-outside-1_1228_6243" maskUnits="userSpaceOnUse" x="0" y="0" width="135" height="37" fill="black">
<rect fill="white" width="135" height="37"/>
<path d="M1 17.4152L19.4322 1L22.6882 4.71697L4.25607 21.1321L1 17.4152Z"/>
<path d="M7.51214 24.8491L25.9443 8.43393L29.2004 12.1509L10.7682 28.5661L7.51214 24.8491Z"/>
<path d="M14.0243 32.283L32.4564 15.8679L35.7125 19.5848L17.2803 36L14.0243 32.283Z"/>
<path d="M24.6532 29.4339L8.37287 10.8491L12.0593 7.56607L28.3396 26.1509L24.6532 29.4339Z"/>
<path d="M56.4051 20.84V21.864H44.1546C44.3239 23.3573 44.874 24.52 45.8049 25.352C46.7359 26.184 48.1429 26.6 50.026 26.6C51.9302 26.6 53.6863 26.0667 55.2943 25H55.453V27.816C53.6757 28.8187 51.5811 29.32 49.1691 29.32C46.7782 29.32 44.8528 28.584 43.3929 27.112C41.9542 25.6187 41.2348 23.6133 41.2348 21.096C41.2348 18.5573 41.8801 16.4667 43.1707 14.824C44.4614 13.1813 46.3445 12.36 48.82 12.36C51.2955 12.36 53.1785 13.1813 54.4692 14.824C55.7598 16.4667 56.4051 18.472 56.4051 20.84ZM44.1546 19.496H53.5171C53.4324 17.96 52.9141 16.7973 51.9619 16.008C51.031 15.2187 49.9837 14.824 48.82 14.824C47.6563 14.824 46.6089 15.2187 45.678 16.008C44.747 16.7973 44.2392 17.96 44.1546 19.496Z"/>
<path d="M67.2374 15.176H62.6355V24.84C62.6355 25.736 62.8789 26.2907 63.3655 26.504C63.7675 26.6747 64.2859 26.76 64.9206 26.76C65.5554 26.76 66.2536 26.5893 67.0153 26.248H67.2374V28.616C66.3488 29.0853 65.3967 29.32 64.3811 29.32C61.292 29.32 59.7475 27.912 59.7475 25.096V15.176H56.7324V14.984L62.6355 9.16V12.68H67.2374V15.176Z"/>
<path d="M82.0837 16.68C80.518 15.6133 78.8148 15.08 76.974 15.08C75.1544 15.08 73.7263 15.6133 72.6895 16.68C71.6528 17.7253 71.1344 19.112 71.1344 20.84C71.1344 22.568 71.6528 23.9653 72.6895 25.032C73.7263 26.0773 75.1544 26.6 76.974 26.6C78.8148 26.6 80.518 26.0667 82.0837 25H82.2107V27.752C80.4545 28.7973 78.6244 29.32 76.7201 29.32C74.3716 29.32 72.3721 28.552 70.7218 27.016C69.0715 25.48 68.2463 23.4213 68.2463 20.84C68.2463 18.2587 69.0715 16.2 70.7218 14.664C72.3721 13.128 74.3716 12.36 76.7201 12.36C78.6244 12.36 80.4545 12.8827 82.2107 13.928V16.68H82.0837Z"/>
<path d="M93.5133 12.36C95.2694 12.36 96.6553 12.9573 97.6709 14.152C98.6865 15.3467 99.1943 16.84 99.1943 18.632V29H96.3062V18.952C96.3062 16.3493 95.1425 15.048 92.8151 15.048C90.9743 15.048 89.2394 16.072 87.6102 18.12V29H84.7221V5.64H87.6102V15.208H87.7054C89.4192 13.3093 91.3552 12.36 93.5133 12.36Z"/>
<path d="M116.693 20.84V21.864H104.443C104.612 23.3573 105.162 24.52 106.093 25.352C107.024 26.184 108.431 26.6 110.314 26.6C112.218 26.6 113.975 26.0667 115.583 25H115.741V27.816C113.964 28.8187 111.869 29.32 109.457 29.32C107.066 29.32 105.141 28.584 103.681 27.112C102.242 25.6187 101.523 23.6133 101.523 21.096C101.523 18.5573 102.168 16.4667 103.459 14.824C104.75 13.1813 106.633 12.36 109.108 12.36C111.584 12.36 113.467 13.1813 114.757 14.824C116.048 16.4667 116.693 18.472 116.693 20.84ZM104.443 19.496H113.805C113.721 17.96 113.202 16.7973 112.25 16.008C111.319 15.2187 110.272 14.824 109.108 14.824C107.944 14.824 106.897 15.2187 105.966 16.008C105.035 16.7973 104.527 17.96 104.443 19.496Z"/>
<path d="M120.29 14.664C121.834 13.128 123.633 12.36 125.685 12.36C127.737 12.36 129.514 13.1493 131.017 14.728H131.112V5.64H134V29H131.461L131.112 26.952H131.017C129.514 28.5307 127.737 29.32 125.685 29.32C123.633 29.32 121.834 28.552 120.29 27.016C118.766 25.48 118.004 23.4213 118.004 20.84C118.004 18.2587 118.766 16.2 120.29 14.664ZM126.097 26.6C128.002 26.6 129.673 25.8 131.112 24.2V17.48C129.673 15.88 128.002 15.08 126.097 15.08C124.532 15.08 123.273 15.5813 122.321 16.584C121.369 17.5867 120.893 19.0053 120.893 20.84C120.893 22.6747 121.369 24.0933 122.321 25.096C123.273 26.0987 124.532 26.6 126.097 26.6Z"/>
</mask>
<path d="M1 17.4152L19.4322 1L22.6882 4.71697L4.25607 21.1321L1 17.4152Z" fill="#097B45"/>
<path d="M7.51214 24.8491L25.9443 8.43393L29.2004 12.1509L10.7682 28.5661L7.51214 24.8491Z" fill="#097B45"/>
<path d="M14.0243 32.283L32.4564 15.8679L35.7125 19.5848L17.2803 36L14.0243 32.283Z" fill="#097B45"/>
<path d="M24.6532 29.4339L8.37287 10.8491L12.0593 7.56607L28.3396 26.1509L24.6532 29.4339Z" fill="#097B45"/>
<path d="M56.4051 20.84V21.864H44.1546C44.3239 23.3573 44.874 24.52 45.8049 25.352C46.7359 26.184 48.1429 26.6 50.026 26.6C51.9302 26.6 53.6863 26.0667 55.2943 25H55.453V27.816C53.6757 28.8187 51.5811 29.32 49.1691 29.32C46.7782 29.32 44.8528 28.584 43.3929 27.112C41.9542 25.6187 41.2348 23.6133 41.2348 21.096C41.2348 18.5573 41.8801 16.4667 43.1707 14.824C44.4614 13.1813 46.3445 12.36 48.82 12.36C51.2955 12.36 53.1785 13.1813 54.4692 14.824C55.7598 16.4667 56.4051 18.472 56.4051 20.84ZM44.1546 19.496H53.5171C53.4324 17.96 52.9141 16.7973 51.9619 16.008C51.031 15.2187 49.9837 14.824 48.82 14.824C47.6563 14.824 46.6089 15.2187 45.678 16.008C44.747 16.7973 44.2392 17.96 44.1546 19.496Z" fill="#097B45"/>
<path d="M67.2374 15.176H62.6355V24.84C62.6355 25.736 62.8789 26.2907 63.3655 26.504C63.7675 26.6747 64.2859 26.76 64.9206 26.76C65.5554 26.76 66.2536 26.5893 67.0153 26.248H67.2374V28.616C66.3488 29.0853 65.3967 29.32 64.3811 29.32C61.292 29.32 59.7475 27.912 59.7475 25.096V15.176H56.7324V14.984L62.6355 9.16V12.68H67.2374V15.176Z" fill="#097B45"/>
<path d="M82.0837 16.68C80.518 15.6133 78.8148 15.08 76.974 15.08C75.1544 15.08 73.7263 15.6133 72.6895 16.68C71.6528 17.7253 71.1344 19.112 71.1344 20.84C71.1344 22.568 71.6528 23.9653 72.6895 25.032C73.7263 26.0773 75.1544 26.6 76.974 26.6C78.8148 26.6 80.518 26.0667 82.0837 25H82.2107V27.752C80.4545 28.7973 78.6244 29.32 76.7201 29.32C74.3716 29.32 72.3721 28.552 70.7218 27.016C69.0715 25.48 68.2463 23.4213 68.2463 20.84C68.2463 18.2587 69.0715 16.2 70.7218 14.664C72.3721 13.128 74.3716 12.36 76.7201 12.36C78.6244 12.36 80.4545 12.8827 82.2107 13.928V16.68H82.0837Z" fill="#097B45"/>
<path d="M93.5133 12.36C95.2694 12.36 96.6553 12.9573 97.6709 14.152C98.6865 15.3467 99.1943 16.84 99.1943 18.632V29H96.3062V18.952C96.3062 16.3493 95.1425 15.048 92.8151 15.048C90.9743 15.048 89.2394 16.072 87.6102 18.12V29H84.7221V5.64H87.6102V15.208H87.7054C89.4192 13.3093 91.3552 12.36 93.5133 12.36Z" fill="#097B45"/>
<path d="M116.693 20.84V21.864H104.443C104.612 23.3573 105.162 24.52 106.093 25.352C107.024 26.184 108.431 26.6 110.314 26.6C112.218 26.6 113.975 26.0667 115.583 25H115.741V27.816C113.964 28.8187 111.869 29.32 109.457 29.32C107.066 29.32 105.141 28.584 103.681 27.112C102.242 25.6187 101.523 23.6133 101.523 21.096C101.523 18.5573 102.168 16.4667 103.459 14.824C104.75 13.1813 106.633 12.36 109.108 12.36C111.584 12.36 113.467 13.1813 114.757 14.824C116.048 16.4667 116.693 18.472 116.693 20.84ZM104.443 19.496H113.805C113.721 17.96 113.202 16.7973 112.25 16.008C111.319 15.2187 110.272 14.824 109.108 14.824C107.944 14.824 106.897 15.2187 105.966 16.008C105.035 16.7973 104.527 17.96 104.443 19.496Z" fill="#097B45"/>
<path d="M120.29 14.664C121.834 13.128 123.633 12.36 125.685 12.36C127.737 12.36 129.514 13.1493 131.017 14.728H131.112V5.64H134V29H131.461L131.112 26.952H131.017C129.514 28.5307 127.737 29.32 125.685 29.32C123.633 29.32 121.834 28.552 120.29 27.016C118.766 25.48 118.004 23.4213 118.004 20.84C118.004 18.2587 118.766 16.2 120.29 14.664ZM126.097 26.6C128.002 26.6 129.673 25.8 131.112 24.2V17.48C129.673 15.88 128.002 15.08 126.097 15.08C124.532 15.08 123.273 15.5813 122.321 16.584C121.369 17.5867 120.893 19.0053 120.893 20.84C120.893 22.6747 121.369 24.0933 122.321 25.096C123.273 26.0987 124.532 26.6 126.097 26.6Z" fill="#097B45"/>
<path d="M1 17.4152L19.4322 1L22.6882 4.71697L4.25607 21.1321L1 17.4152Z" stroke="#097B45" stroke-width="0.6" mask="url(#path-1-outside-1_1228_6243)"/>
<path d="M7.51214 24.8491L25.9443 8.43393L29.2004 12.1509L10.7682 28.5661L7.51214 24.8491Z" stroke="#097B45" stroke-width="0.6" mask="url(#path-1-outside-1_1228_6243)"/>
<path d="M14.0243 32.283L32.4564 15.8679L35.7125 19.5848L17.2803 36L14.0243 32.283Z" stroke="#097B45" stroke-width="0.6" mask="url(#path-1-outside-1_1228_6243)"/>
<path d="M24.6532 29.4339L8.37287 10.8491L12.0593 7.56607L28.3396 26.1509L24.6532 29.4339Z" stroke="#097B45" stroke-width="0.6" mask="url(#path-1-outside-1_1228_6243)"/>
<path d="M56.4051 20.84V21.864H44.1546C44.3239 23.3573 44.874 24.52 45.8049 25.352C46.7359 26.184 48.1429 26.6 50.026 26.6C51.9302 26.6 53.6863 26.0667 55.2943 25H55.453V27.816C53.6757 28.8187 51.5811 29.32 49.1691 29.32C46.7782 29.32 44.8528 28.584 43.3929 27.112C41.9542 25.6187 41.2348 23.6133 41.2348 21.096C41.2348 18.5573 41.8801 16.4667 43.1707 14.824C44.4614 13.1813 46.3445 12.36 48.82 12.36C51.2955 12.36 53.1785 13.1813 54.4692 14.824C55.7598 16.4667 56.4051 18.472 56.4051 20.84ZM44.1546 19.496H53.5171C53.4324 17.96 52.9141 16.7973 51.9619 16.008C51.031 15.2187 49.9837 14.824 48.82 14.824C47.6563 14.824 46.6089 15.2187 45.678 16.008C44.747 16.7973 44.2392 17.96 44.1546 19.496Z" stroke="#097B45" stroke-width="0.6" mask="url(#path-1-outside-1_1228_6243)"/>
<path d="M67.2374 15.176H62.6355V24.84C62.6355 25.736 62.8789 26.2907 63.3655 26.504C63.7675 26.6747 64.2859 26.76 64.9206 26.76C65.5554 26.76 66.2536 26.5893 67.0153 26.248H67.2374V28.616C66.3488 29.0853 65.3967 29.32 64.3811 29.32C61.292 29.32 59.7475 27.912 59.7475 25.096V15.176H56.7324V14.984L62.6355 9.16V12.68H67.2374V15.176Z" stroke="#097B45" stroke-width="0.6" mask="url(#path-1-outside-1_1228_6243)"/>
<path d="M82.0837 16.68C80.518 15.6133 78.8148 15.08 76.974 15.08C75.1544 15.08 73.7263 15.6133 72.6895 16.68C71.6528 17.7253 71.1344 19.112 71.1344 20.84C71.1344 22.568 71.6528 23.9653 72.6895 25.032C73.7263 26.0773 75.1544 26.6 76.974 26.6C78.8148 26.6 80.518 26.0667 82.0837 25H82.2107V27.752C80.4545 28.7973 78.6244 29.32 76.7201 29.32C74.3716 29.32 72.3721 28.552 70.7218 27.016C69.0715 25.48 68.2463 23.4213 68.2463 20.84C68.2463 18.2587 69.0715 16.2 70.7218 14.664C72.3721 13.128 74.3716 12.36 76.7201 12.36C78.6244 12.36 80.4545 12.8827 82.2107 13.928V16.68H82.0837Z" stroke="#097B45" stroke-width="0.6" mask="url(#path-1-outside-1_1228_6243)"/>
<path d="M93.5133 12.36C95.2694 12.36 96.6553 12.9573 97.6709 14.152C98.6865 15.3467 99.1943 16.84 99.1943 18.632V29H96.3062V18.952C96.3062 16.3493 95.1425 15.048 92.8151 15.048C90.9743 15.048 89.2394 16.072 87.6102 18.12V29H84.7221V5.64H87.6102V15.208H87.7054C89.4192 13.3093 91.3552 12.36 93.5133 12.36Z" stroke="#097B45" stroke-width="0.6" mask="url(#path-1-outside-1_1228_6243)"/>
<path d="M116.693 20.84V21.864H104.443C104.612 23.3573 105.162 24.52 106.093 25.352C107.024 26.184 108.431 26.6 110.314 26.6C112.218 26.6 113.975 26.0667 115.583 25H115.741V27.816C113.964 28.8187 111.869 29.32 109.457 29.32C107.066 29.32 105.141 28.584 103.681 27.112C102.242 25.6187 101.523 23.6133 101.523 21.096C101.523 18.5573 102.168 16.4667 103.459 14.824C104.75 13.1813 106.633 12.36 109.108 12.36C111.584 12.36 113.467 13.1813 114.757 14.824C116.048 16.4667 116.693 18.472 116.693 20.84ZM104.443 19.496H113.805C113.721 17.96 113.202 16.7973 112.25 16.008C111.319 15.2187 110.272 14.824 109.108 14.824C107.944 14.824 106.897 15.2187 105.966 16.008C105.035 16.7973 104.527 17.96 104.443 19.496Z" stroke="#097B45" stroke-width="0.6" mask="url(#path-1-outside-1_1228_6243)"/>
<path d="M120.29 14.664C121.834 13.128 123.633 12.36 125.685 12.36C127.737 12.36 129.514 13.1493 131.017 14.728H131.112V5.64H134V29H131.461L131.112 26.952H131.017C129.514 28.5307 127.737 29.32 125.685 29.32C123.633 29.32 121.834 28.552 120.29 27.016C118.766 25.48 118.004 23.4213 118.004 20.84C118.004 18.2587 118.766 16.2 120.29 14.664ZM126.097 26.6C128.002 26.6 129.673 25.8 131.112 24.2V17.48C129.673 15.88 128.002 15.08 126.097 15.08C124.532 15.08 123.273 15.5813 122.321 16.584C121.369 17.5867 120.893 19.0053 120.893 20.84C120.893 22.6747 121.369 24.0933 122.321 25.096C123.273 26.0987 124.532 26.6 126.097 26.6Z" stroke="#097B45" stroke-width="0.6" mask="url(#path-1-outside-1_1228_6243)"/>
</svg>
