<svg width="10" height="10" viewBox="0 0 10 10" fill="none"
    xmlns="http://www.w3.org/2000/svg">
    <path d="M1.5 8.00058H3.62C3.6858 8.00096 3.75103 7.98835 3.81195 7.96348C3.87287 7.9386 3.92828 7.90195 3.975 7.85562L7.435 4.39163L8.855 3.00203C8.90186 2.95556 8.93906 2.90028 8.96445 2.83936C8.98983 2.77845 9.0029 2.71312 9.0029 2.64713C9.0029 2.58114 8.98983 2.51581 8.96445 2.4549C8.93906 2.39399 8.90186 2.3387 8.855 2.29223L6.735 0.147856C6.68852 0.101006 6.63322 0.0638193 6.57229 0.0384423C6.51136 0.0130653 6.44601 0 6.38 0C6.31399 0 6.24864 0.0130653 6.18771 0.0384423C6.12678 0.0638193 6.07148 0.101006 6.025 0.147856L4.615 1.56245L1.145 5.02644C1.09866 5.07315 1.062 5.12854 1.03711 5.18944C1.01223 5.25034 0.99962 5.31555 1 5.38134V7.50072C1 7.63329 1.05268 7.76043 1.14645 7.85418C1.24021 7.94792 1.36739 8.00058 1.5 8.00058ZM6.38 1.20755L7.795 2.62214L7.085 3.33193L5.67 1.91734L6.38 1.20755ZM2 5.58628L4.965 2.62214L6.38 4.03673L3.415 7.00087H2V5.58628ZM9.5 9.00029H0.5C0.367392 9.00029 0.240215 9.05295 0.146447 9.14669C0.0526784 9.24043 0 9.36757 0 9.50014C0 9.63271 0.0526784 9.75986 0.146447 9.8536C0.240215 9.94734 0.367392 10 0.5 10H9.5C9.63261 10 9.75979 9.94734 9.85355 9.8536C9.94732 9.75986 10 9.63271 10 9.50014C10 9.36757 9.94732 9.24043 9.85355 9.14669C9.75979 9.05295 9.63261 9.00029 9.5 9.00029Z" fill="#097B45"/>
</svg>
    