<svg width="36" height="36" viewBox="0 0 36 36" fill="none"
    xmlns="http://www.w3.org/2000/svg">
    <g clip-path="url(#clip0_1914_66)">
        <rect width="36" height="36" rx="18" fill="#F3F5F5"/>
        <path d="M21.72 20.88V22.32C21.72 24.24 24.48 25.08 24.48 25.08C24.48 25.08 21.3 27.48 18 27.48C14.7 27.48 11.52 25.08 11.52 25.08C11.52 25.08 14.3017 24.24 14.28 22.32C14.2583 20.4 14.2728 19.272 14.2583 15.9826C12.5385 13.7533 12.6489 12.2572 13.5893 11.205C16.74 7.68 25.32 8.88 25.32 8.88C25.32 8.88 26.1207 17.5192 24.3 20.04C23.52 21.12 21.72 20.88 21.72 20.88Z" fill="url(#paint0_linear_1914_66)"/>
        <g style="mix-blend-mode:multiply">
            <path d="M21.72 20.8799C19.08 20.5799 17.52 19.4399 17.52 19.4399C18.5049 20.897 20.0059 21.9263 21.72 22.3199V20.8799Z" fill="#FFDBC9"/>
        </g>
        <path d="M30.6 28.7167C31.7424 31.0395 32.4 36.3967 32.4 36.3967H3.59998C3.59998 36.3967 4.25782 31.0389 5.39998 28.7167C6.54214 26.3945 13.212 24.2406 13.212 24.2406C14.4975 26.8797 21.5529 26.8797 22.7845 24.2397C22.7845 24.2397 29.4576 26.3939 30.6 28.7167Z" fill="url(#paint1_linear_1914_66)"/>
        <path d="M17.52 33.3601C17.52 33.2651 17.5482 33.1723 17.6009 33.0934C17.6537 33.0145 17.7286 32.9529 17.8163 32.9166C17.904 32.8803 18.0006 32.8708 18.0937 32.8893C18.1868 32.9078 18.2723 32.9535 18.3394 33.0207C18.4066 33.0878 18.4523 33.1733 18.4708 33.2664C18.4893 33.3595 18.4798 33.4561 18.4435 33.5438C18.4072 33.6315 18.3456 33.7064 18.2667 33.7592C18.1878 33.8119 18.095 33.8401 18 33.8401C17.8727 33.8401 17.7506 33.7895 17.6606 33.6995C17.5706 33.6095 17.52 33.4874 17.52 33.3601ZM17.52 30.9601C17.52 30.8651 17.5482 30.7723 17.6009 30.6934C17.6537 30.6145 17.7286 30.5529 17.8163 30.5166C17.904 30.4803 18.0006 30.4708 18.0937 30.4893C18.1868 30.5078 18.2723 30.5535 18.3394 30.6207C18.4066 30.6878 18.4523 30.7733 18.4708 30.8664C18.4893 30.9595 18.4798 31.0561 18.4435 31.1438C18.4072 31.2315 18.3456 31.3064 18.2667 31.3592C18.1878 31.4119 18.095 31.4401 18 31.4401C17.8727 31.4401 17.7506 31.3895 17.6606 31.2995C17.5706 31.2095 17.52 31.0874 17.52 30.9601ZM17.52 28.5601C17.52 28.4651 17.5482 28.3723 17.6009 28.2934C17.6537 28.2145 17.7286 28.1529 17.8163 28.1166C17.904 28.0803 18.0006 28.0708 18.0937 28.0893C18.1868 28.1078 18.2723 28.1535 18.3394 28.2207C18.4066 28.2878 18.4523 28.3733 18.4708 28.4664C18.4893 28.5595 18.4798 28.6561 18.4435 28.7438C18.4072 28.8315 18.3456 28.9064 18.2667 28.9592C18.1878 29.0119 18.095 29.0401 18 29.0401C17.8727 29.0401 17.7506 28.9895 17.6606 28.8995C17.5706 28.8095 17.52 28.6874 17.52 28.5601Z" fill="white"/>
        <path d="M15.7386 12.385C15.357 12.0573 14.8933 11.8366 14.2379 12.1772C12.684 12.9839 13.86 16.0799 15.24 16.0799C15.6 16.0799 15.7791 17.2106 14.1762 17.9999C14.1762 16.7399 12.2562 13.6199 12.0882 10.7793C10.1562 10.0599 10.6362 7.18143 11.9626 7.18143C11.7509 4.54287 15.9762 3.17991 17.6123 4.69419C19.2762 2.69991 23.4762 3.71991 23.7298 5.45007C26.6178 3.90843 28.5162 8.33991 25.812 10.0602C24.6993 10.7682 22.0962 11.0376 18.3387 11.0376C17.7714 11.0376 17.4537 11.1785 17.6123 11.8799C17.9194 13.239 17.2065 14.0951 15.7386 12.385Z" fill="#585858"/>
    </g>
    <rect x="0.5" y="0.5" width="35" height="35" rx="17.5" stroke="#097B45"/>
    <defs>
        <linearGradient id="paint0_linear_1914_66" x1="18.5077" y1="8.68311" x2="18.5077" y2="27.48" gradientUnits="userSpaceOnUse">
            <stop stop-color="#FFD4B3"/>
            <stop offset="1" stop-color="#FFDCC2"/>
        </linearGradient>
        <linearGradient id="paint1_linear_1914_66" x1="18" y1="24.2397" x2="18" y2="36.3967" gradientUnits="userSpaceOnUse">
            <stop stop-color="#806A6A"/>
            <stop offset="1" stop-color="#665654"/>
        </linearGradient>
        <clipPath id="clip0_1914_66">
            <rect width="36" height="36" rx="18" fill="white"/>
        </clipPath>
    </defs>
</svg>
    