<svg width="36" height="36" viewBox="0 0 36 36" fill="none"
    xmlns="http://www.w3.org/2000/svg">
    <g clip-path="url(#clip0_1914_40)">
        <rect width="36" height="36" rx="18" transform="matrix(-1 0 0 1 36 0)" fill="#F3F5F5"/>
        <path d="M9.3 19.1398C8.32656 15.9068 7.72657 10.3798 11.82 6.59977C14.9484 3.71089 23.4 3.41977 26.34 9.71977C26.8308 10.7714 26.16 12.4198 24.84 12.3598C24.3212 12.3358 24 13.9798 23.7 14.9998C24.12 19.1398 27.8618 19.2162 29.76 22.3798C32.1 26.2798 29.22 32.0398 22.32 32.0398C15.42 32.0398 11.4646 26.3284 9.3 19.1398Z" fill="#585858"/>
        <path d="M6.95998 28.5598C6.08002 30.2398 5.63998 36.3598 5.63998 36.3598H30.36C30.36 36.3598 29.9199 30.2398 29.04 28.5598C27.72 26.0398 18 22.7998 18 22.7998C18 22.7998 8.27998 26.0398 6.95998 28.5598Z" fill="url(#paint0_linear_1914_40)"/>
        <path d="M15.12 24.2397C15.12 24.2397 16.6519 25.0797 18.0612 25.0797C19.4705 25.0797 20.88 24.2397 20.88 24.2397V21.5997C21.1832 21.6476 21.4903 21.6659 21.797 21.6542C24.6756 21.6539 25.761 17.461 25.2 12.3597C24.84 12.3597 24 12.3597 22.8 10.6797C23.1 13.0197 19.62 12.6597 18.3 10.7997C18.96 13.0197 17.22 14.5197 15.72 13.6197C12.7787 11.8548 12.1175 17.2348 15.12 17.2797V24.2397Z" fill="url(#paint1_linear_1914_40)"/>
        <path d="M20.88 21.6C19.3914 21.3259 17.9671 20.7765 16.68 19.98C16.68 19.98 18.18 22.56 20.88 22.56V21.6Z" fill="#FFB597"/>
        <path d="M17.996 24.9568C17.1288 24.9176 15.12 24.4928 15.12 23.575V22.7998C14.8999 22.7998 14.2698 23.3196 13.9456 23.7598C12.6645 25.4998 14.0856 27.0598 15.2445 27.0598C16.7068 27.0598 17.676 25.838 18 25.2502C18.324 25.8382 19.2931 27.0598 20.7554 27.0598C21.9144 27.0598 23.3354 25.4998 22.0543 23.7598C21.7302 23.3196 21.1 22.7998 20.88 22.7998V23.575C20.88 24.4928 18.8169 24.9176 17.996 24.9568Z" fill="white"/>
    </g>
    <rect x="-0.5" y="0.5" width="35" height="35" rx="17.5" transform="matrix(-1 0 0 1 35 0)" stroke="#097B45"/>
    <defs>
        <linearGradient id="paint0_linear_1914_40" x1="18" y1="36.3598" x2="18" y2="22.7998" gradientUnits="userSpaceOnUse">
            <stop stop-color="#FFC9B3"/>
            <stop offset="1" stop-color="#FFD2C2"/>
        </linearGradient>
        <linearGradient id="paint1_linear_1914_40" x1="19.2544" y1="10.6797" x2="19.2544" y2="25.0797" gradientUnits="userSpaceOnUse">
            <stop stop-color="#FFD4B3"/>
            <stop offset="1" stop-color="#FFDCC2"/>
        </linearGradient>
        <clipPath id="clip0_1914_40">
            <rect width="36" height="36" rx="18" transform="matrix(-1 0 0 1 36 0)" fill="white"/>
        </clipPath>
    </defs>
</svg>
    