<svg width="36" height="36" viewBox="0 0 36 36" fill="none"
    xmlns="http://www.w3.org/2000/svg">
    <g clip-path="url(#clip0_1914_53)">
        <rect width="36" height="36" rx="18" fill="#F3F5F5"/>
        <path d="M21.84 21.12V23.82C21.84 24.34 14.16 24.1651 14.16 23.4154C14.16 22.7098 14.1744 19.5122 14.16 16.2226C12.4402 13.9933 12.4402 12.6 13.8 11.16C15.1598 9.72 24.84 9 24.84 9C24.84 9 25.5662 15.9852 25.68 17.88C25.7257 18.642 26.22 21.12 24.3 21.12H21.84Z" fill="url(#paint0_linear_1914_53)"/>
        <g style="mix-blend-mode:multiply">
            <path d="M21.8371 20.8893C20.2737 20.7187 18.7627 20.2252 17.4 19.4399C17.4 19.4399 18.36 21.7199 21.8371 22.3387V20.8893Z" fill="#FFD7B8"/>
        </g>
        <path d="M30.6 29.1971C31.3616 30.7456 31.9616 33.3056 32.4 36.8771H3.59998C4.03854 33.3052 4.63854 30.7452 5.39998 29.1971C6.15886 27.6539 13.2 24.684 13.2 24.684C13.2 24.684 13.3401 23.3264 13.68 23.1318C14.0198 22.9371 21.9152 22.9373 22.32 23.1318C22.7247 23.3263 22.8 24.6833 22.8 24.6833C22.8 24.6833 29.8425 27.6571 30.6 29.1971Z" fill="url(#paint1_linear_1914_53)"/>
        <path d="M15.7224 12.6247C15.3408 12.297 14.8771 12.0763 14.2217 12.4169C12.6678 13.2237 13.6991 16.3362 15.438 16.2755C16.038 16.2546 15.7629 17.4503 14.16 18.24C14.16 16.98 12.24 13.86 12.072 11.0194C10.14 10.3 10.62 7.42154 11.9463 7.42154C11.7347 4.78262 15.96 3.41966 17.5961 4.93394C19.26 2.93966 23.46 3.95966 23.7135 5.68982C26.6016 4.14818 28.5 8.57966 25.7958 10.3C24.683 11.008 22.08 11.2774 18.3224 11.2774C16.5193 11.2774 17.5562 15.4978 18.12 16.86C18.84 18.6 22.86 18.84 24.12 18.66C25.104 18.5195 25.62 18.12 25.68 17.88C26.58 20.28 25.44 21.72 23.64 21.72C20.58 21.72 17.52 20.82 17.04 18.6C16.6579 16.8333 16.6789 13.9819 15.7224 12.6247Z" fill="#585858"/>
    </g>
    <rect x="0.5" y="0.5" width="35" height="35" rx="17.5" stroke="#097B45"/>
    <defs>
        <linearGradient id="paint0_linear_1914_53" x1="19.2957" y1="9" x2="19.2957" y2="24.1184" gradientUnits="userSpaceOnUse">
            <stop stop-color="#FFD4B3"/>
            <stop offset="1" stop-color="#FFDCC2"/>
        </linearGradient>
        <linearGradient id="paint1_linear_1914_53" x1="18" y1="22.9858" x2="18" y2="36.8771" gradientUnits="userSpaceOnUse">
            <stop stop-color="#806A6A"/>
            <stop offset="1" stop-color="#665654"/>
        </linearGradient>
        <clipPath id="clip0_1914_53">
            <rect width="36" height="36" rx="18" fill="white"/>
        </clipPath>
    </defs>
</svg>
    