<svg width="468" height="358" viewBox="0 0 468 358" fill="none" xmlns="http://www.w3.org/2000/svg">
<path d="M559.958 100.636C557.658 91.7067 554.204 83.7125 549.753 75.8442C545.582 68.4617 539.937 62.1227 534.337 56.0536C528.627 49.8766 521.921 44.695 515.269 39.8253C508.875 35.1476 502.054 30.9376 495.074 27.4112C480.599 20.1007 465.654 13.9716 450.122 9.94154C434.465 5.88147 418.474 2.58304 402.384 1.47357C385.698 0.322117 369.165 0.178185 352.473 1.44358C336.493 2.65501 320.65 5.67757 305.075 9.71965C289.314 13.8097 274.116 19.8188 259.444 27.2913C252.443 30.8536 245.61 35.0156 239.183 39.7114C232.51 44.5931 225.793 49.7326 220.061 55.9397C214.384 62.0928 208.805 68.4377 204.519 75.8802C199.991 83.7425 196.641 91.8206 194.314 100.768C192.486 107.791 192.239 115.09 192.414 122.334C186.956 122.178 181.504 122.202 176.067 122.466C159.436 123.27 143.072 125.045 126.687 128.331C110.937 131.492 95.6466 136.637 80.6683 142.766C65.4491 148.997 51.1935 157.981 38.0984 168.434C25.2059 178.719 14.6674 192.123 7.17826 207.5C3.48296 215.086 1.35884 223.872 0.433645 232.364C-0.475125 240.688 0.0230562 249.564 2.13075 257.642C4.441 266.512 7.91185 274.452 12.3955 282.236C16.6218 289.571 22.1456 295.868 27.7461 301.937C33.5107 308.186 40.2827 313.361 47 318.273C53.3559 322.921 60.1772 327.149 67.1298 330.627C81.922 338.028 97.0919 344.019 112.908 348.241C128.395 352.379 144.271 355.275 160.186 356.481C176.828 357.74 193.372 357.686 210.01 356.427C226.137 355.203 242.178 352.175 257.862 347.959C273.361 343.797 288.241 337.836 302.743 330.585C309.909 326.999 316.889 322.567 323.436 317.775C329.924 313.037 336.466 307.952 342.028 301.925C347.677 295.808 353.218 289.433 357.477 282.032C362.01 274.164 365.431 266.116 367.736 257.156C369.554 250.097 369.762 242.793 369.581 235.53C375.034 235.686 380.486 235.668 385.928 235.446C402.576 234.763 418.967 232.808 435.368 229.629C451.069 226.589 466.464 221.347 481.333 215.14C496.481 208.819 510.681 200.069 523.766 189.628C530.165 184.525 535.985 178.467 541.311 172.074C546.748 165.562 551.023 158.239 554.828 150.497C558.512 143 560.609 134.328 561.523 125.926C562.432 117.584 562.044 108.745 559.958 100.636ZM367.84 247.555C367.309 251.992 366.406 256.394 365.218 261.024C363.17 268.982 359.097 276.881 354.553 283.831C345.488 297.679 333.06 309.673 319.637 318.567C312.421 323.347 305.053 327.664 297.383 331.503C294.257 333.068 290.731 334.717 287.167 336.18C282.958 337.902 278.731 339.533 274.478 341.122C259.143 346.843 243.13 350.106 227.167 352.823C219.809 354.076 211.061 354.736 203.123 355.335C195.195 355.935 187.214 355.941 179.265 355.833C163.273 355.617 147.277 354.052 131.915 350.969C115.891 347.761 100.07 343.455 84.829 337.098C70.097 330.945 55.4691 323.329 42.4123 312.906C29.4432 302.566 17.3335 289.84 9.63085 274.02C2.31141 258.991 -1.0171 240.322 3.31872 223.662C5.68919 214.576 8.8261 206.87 13.5013 198.756C17.7003 191.475 23.131 185.244 28.8902 179.001C34.9013 172.494 41.3503 167.673 48.3412 162.563C54.6588 157.939 61.4582 153.939 68.3506 150.431C75.8069 146.641 83.4056 143.198 91.4915 140.176C99.1722 137.309 106.962 134.91 114.846 132.799C130.618 128.565 146.04 125.98 162.107 124.877C172.356 124.169 182.67 123.773 192.967 124.001C193.104 124.049 193.252 124.049 193.394 124.013C199.115 124.157 204.831 124.487 210.524 125.081C226.986 126.79 242.736 129.543 259.039 133.891C262.247 134.742 265.461 135.678 268.664 136.697C268.74 136.739 268.822 136.763 268.904 136.775C273.229 138.161 277.516 139.714 281.682 141.453C289.439 144.691 296.562 147.666 303.816 151.708C307.489 153.759 311.102 155.894 314.71 158.077C314.77 158.113 314.825 158.137 314.885 158.155C318.186 160.26 321.657 162.113 325.183 163.696C329.403 165.592 333.734 167.451 338.157 168.728C342.778 170.059 347.387 171.253 352.095 172.152C356.606 173.016 361.139 173.526 365.694 173.994C375.083 174.959 384.592 174.407 393.959 173.442C403.167 172.494 412.2 170.089 420.987 167.049C429.576 164.074 437.969 159.69 445.327 153.993C452.739 148.248 459.571 140.799 463.064 131.456C464.816 126.76 465.894 121.74 465.599 116.631C465.309 111.569 464.252 106.7 462.095 102.19C461.044 99.9947 459.965 97.7638 458.564 95.8147C457.004 93.6497 455.411 91.6287 453.697 89.6077C452.153 87.7785 450.319 86.1953 448.557 84.63C446.898 83.1607 445.179 81.7034 443.367 80.468C442.108 79.6104 440.848 78.7528 439.584 77.8892C435.314 75.4004 431.038 73.1335 426.554 71.1245C422.514 69.3133 418.277 67.832 414.051 66.6626C405.127 64.1858 396.072 62.4346 386.875 61.8709C377.716 61.3011 368.42 61.3311 359.311 62.6625C350.152 63.9998 340.944 65.8949 332.223 69.3313C327.663 71.1245 323.277 73.1275 318.914 75.4364C314.748 77.6374 310.932 80.444 307.166 83.3646C305.272 84.8339 303.536 86.5971 301.839 88.3243C300.284 89.9135 298.763 91.5927 297.443 93.4278C295.998 95.4429 294.454 97.4819 293.359 99.7608C292.237 102.106 291.262 104.421 290.343 106.879C289.505 109.122 289.231 111.749 288.848 114.124C288.465 116.499 288.465 119.467 288.848 121.842C289.231 124.217 289.505 126.844 290.343 129.087C291.262 131.546 292.231 133.861 293.359 136.206C294.454 138.484 295.998 140.523 297.443 142.538C298.757 144.374 300.284 146.053 301.839 147.636C302.918 148.734 304.018 149.777 305.146 150.785C294.23 144.877 282.969 139.9 271.259 135.984C270.689 135.798 270.12 135.612 269.55 135.426C268.647 132.949 267.859 130.52 267.158 127.953C266.808 126.688 266.682 125.321 266.468 124.025C266.424 123.767 266.403 123.57 266.419 123.773C266.392 123.492 266.364 123.21 266.342 122.922C266.255 121.998 266.173 121.081 266.085 120.157C265.576 114.574 266.622 109.806 268.116 104.589C268.466 103.359 268.921 102.196 269.364 101.002C269.501 100.642 269.638 100.283 269.769 99.9228C269.819 99.7908 269.868 99.6829 269.884 99.6409C270.218 98.9452 270.558 98.2556 270.892 97.5599C271.965 95.3289 273.153 93.14 274.538 91.1249C275.03 90.4053 275.529 89.6856 276.021 88.966C276.175 88.7381 276.333 88.5162 276.492 88.2883C276.552 88.2043 276.624 88.1204 276.684 88.0424C277.587 86.909 278.49 85.7755 279.394 84.636C280.987 82.633 282.914 80.8638 284.742 79.1246C285.525 78.381 286.303 77.6434 287.118 76.9417C287.77 76.384 288.421 75.8262 289.078 75.2625C289.341 75.0346 289.604 74.8127 289.866 74.5848C290.009 74.4709 290.31 74.237 290.074 74.4109C292.127 72.8696 294.164 71.3404 296.283 69.931C300.284 67.2683 304.451 64.6895 308.764 62.6805C310.215 62.0028 311.671 61.3311 313.122 60.6534C313.297 60.5695 313.478 60.4855 313.659 60.4076C313.484 60.4855 313.56 60.4495 313.763 60.3716C314.485 60.0777 315.203 59.7838 315.92 59.49C318.443 58.4585 320.978 57.5169 323.535 56.5934C327.832 55.0341 332.283 53.6488 336.717 52.6352C341.732 51.4838 346.741 50.4463 351.816 49.6966C352.621 49.5767 353.426 49.4628 354.225 49.3428C354.46 49.3068 354.701 49.2708 354.937 49.2349C354.942 49.2349 354.942 49.2349 354.942 49.2349C354.948 49.2349 354.98 49.2349 355.052 49.2289C356.601 49.0549 358.145 48.887 359.689 48.7191C362.185 48.4432 364.692 48.2993 367.2 48.1194C376.605 47.4357 386.251 47.7176 395.623 48.8271C398.207 49.1389 400.78 49.4628 403.359 49.8406C404.136 49.9545 404.919 50.0745 405.696 50.1884C405.888 50.2124 406.08 50.2424 406.277 50.2724C406.277 50.2724 406.315 50.2844 406.447 50.3084C407.99 50.6142 409.534 50.9141 411.072 51.2199C415.594 52.1135 420.182 53.127 424.589 54.5483C434.306 57.6788 443.104 60.9413 451.901 66.1468C454.261 67.5442 456.571 68.9595 458.849 70.5068C459.708 71.0885 460.562 71.6702 461.394 72.3059C462.095 72.8336 462.79 73.3674 463.491 73.8951C463.77 74.105 464.049 74.3209 464.334 74.5368C464.476 74.6448 464.789 74.8907 464.564 74.6988C468.352 77.9432 472.179 81.2356 475.354 85.2298C476.28 86.3872 477.205 87.5506 478.13 88.7141C477.873 88.3902 478.256 88.906 478.305 88.978C478.53 89.3138 478.749 89.6377 478.973 89.9675C479.46 90.6992 479.953 91.4248 480.44 92.1565C481.869 94.2735 482.975 96.6723 484.075 99.0112C484.218 99.3231 484.365 99.6349 484.513 99.9468C484.557 100.043 484.579 100.085 484.584 100.097C484.59 100.103 484.59 100.109 484.59 100.115C484.891 100.918 485.192 101.728 485.488 102.538C485.931 103.737 486.282 104.912 486.621 106.154C487.349 108.823 487.814 111.395 488.028 113.758C488.263 116.349 488.362 118.946 488.099 121.536C487.825 124.193 487.574 126.43 486.802 129.237C486.577 130.076 486.347 130.91 486.117 131.75C486.09 131.84 485.887 132.487 486.046 132.085C485.937 132.361 485.827 132.637 485.723 132.907C485.258 134.107 484.831 135.342 484.289 136.505C483.09 139.06 481.82 141.459 480.424 143.894C479.734 145.105 478.809 146.215 478.02 147.348C477.944 147.456 477.873 147.552 477.851 147.582C477.714 147.756 477.577 147.924 477.446 148.098C476.871 148.836 476.296 149.567 475.721 150.299C474.292 152.122 472.716 153.849 471.073 155.438C470.444 156.05 469.809 156.662 469.174 157.273C468.927 157.513 468.681 157.747 468.435 157.987C468.369 158.047 468.303 158.113 468.237 158.173C468.232 158.179 468.227 158.185 468.227 158.191C467.06 159.157 465.9 160.116 464.739 161.082C463.07 162.467 461.356 163.84 459.571 165.028C455.192 167.942 450.719 170.527 446.115 172.992C441.702 175.361 437.564 176.938 432.746 178.677C423.587 181.994 414.16 184.531 404.591 185.946C402.998 186.18 401.399 186.414 399.8 186.648C399.713 186.66 399.237 186.719 399.653 186.672C399.51 186.69 399.368 186.708 399.231 186.719C398.454 186.815 397.682 186.905 396.904 187.001C394.32 187.307 391.758 187.541 389.163 187.727C384.16 188.087 379.161 188.129 374.152 188.129C369.641 188.129 365.065 187.823 360.575 187.337C358.993 187.163 357.411 186.989 355.824 186.821C355.375 186.773 354.931 186.719 354.482 186.672C354.898 186.719 354.422 186.666 354.334 186.654C353.984 186.6 353.634 186.546 353.283 186.498C350.694 186.114 348.126 185.724 345.553 185.22C336.022 183.343 326.513 180.884 317.442 177.112C313.998 175.685 311.354 174.719 307.96 172.878C304.752 171.139 301.587 169.346 298.434 167.481C286.259 160.182 273.624 153.915 260.288 149.591C246.596 145.147 232.718 141.861 218.544 139.93C204.579 138.023 190.613 137.537 176.555 137.747C169.367 137.849 162.157 138.646 155.012 139.45C148.448 140.188 141.89 141.255 135.408 142.61C121.705 145.489 107.888 149.237 94.9568 155.103C81.8727 161.034 69.232 167.834 57.8943 177.232C52.4855 181.712 47.0438 186.564 42.6204 192.237C38.0984 198.042 33.6531 204.069 30.6695 211.032C27.653 218.085 25.3592 225.203 24.538 232.976C24.1165 236.97 24.1329 240.886 24.3026 244.898C24.4613 248.628 25.3208 252.328 26.0599 255.957C26.7497 259.345 28.0745 263.105 29.487 266.2C31.0253 269.582 32.5308 273.036 34.4907 276.161C38.4159 282.434 42.801 288.587 48.0128 293.667C53.345 298.872 58.8031 303.694 64.7812 307.976C70.8361 312.312 77.181 316.006 83.6684 319.472C96.1558 326.135 109.59 330.807 123.052 334.393C136.328 337.926 150.063 340.468 163.711 341.386C177.934 342.346 192.069 342.495 206.287 341.332C220.521 340.163 234.47 337.512 248.359 333.949C261.985 330.459 275.217 325.062 287.863 318.549C300.131 312.228 311.863 303.88 321.717 293.643C332.042 282.914 340.155 270.104 343.889 254.943C345.603 247.986 345.805 240.922 345.323 233.791C352.895 234.637 360.504 235.236 368.119 235.494C368.234 239.518 368.316 243.536 367.84 247.555ZM217.969 114.07C218.32 109.974 218.878 106.328 219.88 102.106C221.665 94.6393 224.939 88.1204 228.743 81.3616C232.367 74.9206 237.596 69.3013 242.791 63.8979C245.517 61.0612 247.877 59.1482 250.767 56.7493C253.351 54.6143 256.017 52.5873 258.755 50.6922C264.914 46.4402 271.275 42.674 277.872 39.3036C284.441 35.9452 290.474 33.4024 297.421 30.8416C310.33 26.0859 323.765 22.5775 337.254 20.5205C344.497 19.417 351.537 18.6014 359.136 17.9237C366.34 17.2821 373.588 17.2761 380.809 17.324C387.537 17.378 394.293 17.7139 400.988 18.4215C408.204 19.1772 414.724 19.8668 421.682 21.2762C428.98 22.7455 436.184 24.4546 443.389 26.4277C450.237 28.3048 456.9 30.8116 463.535 33.4144C470.186 36.0171 476.093 39.0397 482.603 42.5181C488.521 45.6786 494.466 49.5047 499.782 53.7567C503.072 56.3835 505.546 58.4525 508.749 61.2412C511.563 63.688 514.092 66.6206 516.649 69.3793C521.565 74.6988 525.468 81.0198 529.114 87.7725C529.963 89.3498 530.62 91.077 531.359 92.7202C531.758 93.6138 532.733 96.0186 533.143 97.4879C534.129 101.026 535.224 104.607 535.7 108.283C536.001 110.64 536.193 112.163 536.308 114.286C536.417 116.319 536.434 118.28 536.39 120.319C536.302 124.493 535.689 127.768 534.966 131.738C534.654 133.447 534.102 135.132 533.664 136.805C533.439 137.693 533.056 138.556 532.76 139.42C532.563 139.984 532.366 140.547 532.169 141.111C532.114 141.279 532.06 141.441 531.999 141.603C531.999 141.609 531.994 141.615 531.994 141.621C531.983 141.645 531.966 141.687 531.945 141.735C530.488 145.183 529.032 148.62 527.143 151.81C523.229 158.401 519.298 164.212 513.922 169.586C508.218 175.283 502.962 179.847 496.557 184.603C491.044 188.693 484.973 192.423 478.913 195.433C475.201 197.28 472.332 198.69 468.708 200.333C465.73 201.682 462.708 202.99 459.648 204.111C452.756 206.63 445.841 208.849 438.806 210.834C431.821 212.813 424.66 214.102 417.554 215.41C416.219 215.656 414.954 215.83 413.229 216.076C411.664 216.303 410.098 216.567 408.521 216.741C404.815 217.161 401.12 217.575 397.397 217.851C382.999 218.93 368.694 218.72 354.302 217.647C347.152 217.119 340.314 216.004 333.608 214.822C326.951 213.647 320.288 212.201 313.757 210.348C307.018 208.435 300.345 206.342 293.792 203.751C286.823 200.999 280.686 198.324 274.155 194.78C270.826 192.969 267.602 191.037 264.361 189.046C255.875 184.021 247.127 179.595 237.853 176.608C232.898 175.013 227.95 173.574 222.891 172.416C217.948 171.283 212.96 170.479 207.962 169.694C203.489 168.998 198.852 168.614 194.336 168.452C189.332 168.272 184.334 168.134 179.325 168.314C169.312 168.674 159.469 169.909 149.598 171.757C144.874 172.644 140.127 174.018 135.518 175.457C130.519 177.022 125.653 178.917 120.786 180.908C116.373 182.707 112.109 185.082 107.97 187.529C103.82 189.988 99.7416 192.729 95.9915 195.883C92.0991 199.164 88.2998 202.666 85.0644 206.738C81.6264 211.062 78.8289 215.656 76.3818 220.723C74.1427 225.359 72.9821 230.751 72.5113 235.926C72.0405 241.096 72.358 246.439 73.743 251.429C76.5788 261.636 82.1026 270.967 89.4221 278.038C93.09 281.582 96.8674 284.965 101.023 287.819C105.468 290.878 109.979 293.577 114.703 296.083C123.605 300.809 133.169 303.862 142.728 306.483C152.067 309.043 161.746 310.441 171.343 311.136C181.099 311.844 190.986 312.036 200.73 310.974C205.515 310.453 210.3 309.943 215.041 309.061C220.23 308.09 225.349 306.926 230.462 305.535C239.972 302.95 249.12 299.184 257.95 294.542C262.116 292.359 266.173 289.751 269.983 286.89C274.018 283.867 277.926 280.677 281.392 276.875C285.049 272.863 288.257 268.599 291.049 263.825C293.529 259.591 295.527 254.529 296.425 249.588C296.868 247.159 297.159 244.766 297.416 242.301C297.662 239.92 297.356 237.365 297.169 234.997C296.852 230.859 295.664 226.9 294.284 223.062C302.452 225.659 310.724 227.848 319.068 229.617C319.588 232.7 320.113 235.087 320.075 238.331C320.053 239.98 320.097 241.641 319.965 243.285C319.872 244.358 319.79 245.438 319.697 246.511C319.675 246.781 319.626 247.135 319.664 246.937C319.588 247.381 319.506 247.824 319.429 248.268C318.214 255.117 316.286 260.82 313.204 266.703C310.292 272.263 307.062 277.055 302.77 281.69C300.536 284.107 298.253 286.392 295.899 288.659C293.299 291.16 291.164 292.689 288.432 294.836C283.554 298.68 278.195 301.787 272.852 304.773C271.675 305.433 270.476 306.033 269.277 306.644C268.456 307.064 267.634 307.484 266.813 307.904C266.611 308.006 266.424 308.096 266.611 308.018C266.304 308.15 266.003 308.288 265.702 308.42C262.603 309.811 259.505 311.148 256.368 312.432C245.287 316.948 233.731 319.754 222.125 322.045C216.092 323.233 210.595 323.838 204.316 324.462C198.579 325.026 192.77 325.386 187.011 325.338C180.901 325.29 174.814 325.194 168.721 324.744C165.589 324.51 162.474 324.174 159.354 323.844C158.166 323.712 156.989 323.532 155.806 323.365C154.799 323.221 153.797 323.077 152.795 322.933C152.483 322.891 152.171 322.843 151.859 322.801C151.826 322.801 151.804 322.795 151.788 322.795C151.771 322.789 151.733 322.783 151.646 322.765C139.903 320.666 128.176 318.069 116.915 313.769C113.784 312.57 110.691 311.316 107.592 310.015C107.318 309.901 107.05 309.787 106.776 309.673C106.749 309.655 106.727 309.649 106.716 309.643C106.694 309.631 106.667 309.619 106.629 309.601C105.78 309.199 104.937 308.797 104.088 308.39C102.889 307.82 101.68 307.268 100.497 306.65C95.1101 303.832 89.7396 300.917 84.7523 297.307C81.9658 295.292 79.2668 293.223 76.5788 291.052C76.3872 290.902 76.234 290.764 76.3653 290.884C76.1409 290.68 75.9164 290.482 75.692 290.278C74.8489 289.523 74.0058 288.767 73.1682 288.005C72.0952 287.04 71.0824 286.008 70.0587 284.977C67.9838 282.896 66.0075 280.689 64.1736 278.344C63.0951 276.959 62.1316 275.771 61.3706 274.638C60.5111 273.354 59.5914 272.101 58.8195 270.752C55.5402 265.048 52.7209 259.435 51.303 253.156C50.9416 251.555 50.5584 249.971 50.323 248.34C50.0219 246.199 49.8851 245.156 49.792 243.189C49.6332 239.746 49.7646 236.394 50.1314 232.976C50.2902 231.488 50.6022 230.001 50.9526 228.148C51.2537 226.559 51.7792 225.011 52.2227 223.464C53.1971 220.034 54.3358 217.731 55.7756 214.576C58.5512 208.483 62.1699 203.859 66.336 198.924C68.2138 196.705 70.2229 194.612 72.3197 192.651C74.6244 190.492 76.5077 188.651 79.1902 186.66C84.1063 183.001 89.0881 179.403 94.4094 176.482C97.382 174.851 100.349 173.304 103.388 171.829C103.727 171.667 104.061 171.499 104.4 171.337C104.608 171.235 104.762 171.163 104.587 171.241C105.337 170.905 106.087 170.569 106.837 170.233C108.118 169.658 109.393 169.028 110.702 168.518C116.685 166.149 122.702 164.098 128.828 162.209C134.291 160.524 139.919 159.349 145.503 158.245C148.7 157.615 151.897 157.106 155.122 156.62C155.434 156.578 155.746 156.53 156.058 156.482C156.08 156.476 156.096 156.476 156.113 156.47C156.118 156.47 156.14 156.47 156.184 156.464C157 156.362 157.821 156.26 158.637 156.158C160.137 155.972 161.631 155.726 163.131 155.6C174.973 154.623 186.885 153.981 198.754 154.965C205.071 155.492 211.137 156.104 217.022 156.998C222.612 157.843 228.273 158.839 233.763 160.284C239.983 161.921 246.103 163.75 252.207 165.849C258.043 167.858 263.403 170.371 268.675 172.932C272.769 174.923 276.695 177.286 280.625 179.643C285.952 182.857 291.328 185.742 296.896 188.423C302.376 191.061 308.102 193.142 313.807 195.11C325.177 199.02 336.92 201.341 348.701 203.122C360.521 204.903 372.504 205.083 384.412 204.891C396.308 204.699 408.133 202.87 419.837 200.681C425.668 199.589 431.405 197.88 437.104 196.177C442.595 194.534 448.031 192.531 453.325 190.228C464.258 185.472 475.135 179.709 484.519 171.829C494.039 163.834 502.853 154.509 508.223 142.562C510.851 136.715 512.685 130.712 513.441 124.229C514.218 117.56 513.627 111.047 512.165 104.541C509.428 92.3903 502.212 81.0557 493.88 72.6777C484.847 63.592 474.725 56.4314 463.688 50.6082C453.248 45.0968 442.025 40.7489 430.732 37.8763C419.175 34.9317 407.426 32.6348 395.574 31.7532C383.711 30.8776 371.82 30.5657 359.951 31.6452C348.083 32.7187 336.23 34.4279 324.668 37.6304C318.651 39.2916 312.75 41.1687 306.865 43.3277C301.045 45.4507 295.423 48.1854 289.85 50.98C284.474 53.6728 279.405 57.0611 274.428 60.5395C272.145 62.1347 269.95 63.9279 267.82 65.769C265.521 67.7541 263.091 69.7271 261.021 72C256.625 76.8217 252.629 81.7514 249.163 87.4127C245.84 92.8461 243.585 98.9572 241.937 105.212C239.983 112.625 240.245 120.433 241.395 127.953C235.663 126.778 229.904 125.8 224.123 125.027C222.141 124.763 220.154 124.511 218.161 124.277C217.937 120.895 217.674 117.458 217.969 114.07ZM343.845 233.617C344.097 237.024 344.327 240.424 344.037 243.848C343.834 246.229 343.708 247.77 343.369 249.875C343.046 251.915 342.635 253.84 342.143 255.843C340.298 263.309 337.172 269.828 333.263 276.551C329.535 282.962 324.444 288.581 319.21 294.014C314.179 299.244 309.011 303.256 303.29 307.238C290.972 315.796 278.545 321.841 264.87 326.999C252.076 331.821 238.57 335.341 225.168 337.386C217.789 338.507 210.71 339.341 202.997 339.977C196.038 340.546 189.058 340.642 182.078 340.594C175.356 340.54 168.6 340.276 161.905 339.581C154.487 338.807 147.737 338.124 140.62 336.69C133.366 335.233 126.194 333.56 119.034 331.653C112.218 329.835 105.539 327.305 98.9478 324.726C92.2634 322.111 86.3947 319.125 79.88 315.646C73.9401 312.474 67.9565 308.714 62.5969 304.474C56.7884 299.88 51.3522 295.046 46.0748 289.265C40.9506 283.639 37.0637 277.924 33.4834 271.159C31.5728 267.543 30.4012 264.449 29.0052 260.676C27.8172 257.456 26.9194 253.78 26.4431 250.337C25.8847 246.277 25.5563 242.919 25.6438 238.667C25.7369 234.325 26.257 230.769 26.9961 226.714C27.653 223.122 28.8683 219.704 30.0289 216.285C29.914 216.627 30.2643 215.752 30.3136 215.638C30.5654 215.05 30.8173 214.462 31.0691 213.875C31.403 213.095 31.7041 212.279 32.0819 211.518C32.8976 209.898 33.6257 208.183 34.5454 206.63C38.498 199.967 42.4123 194.24 47.7445 188.765C53.2793 183.085 58.4636 178.575 64.6882 173.886C70.4474 169.538 76.6883 166.005 82.9293 162.587C95.2251 155.834 109.108 151.078 122.8 147.186C129.501 145.279 136.361 143.984 143.187 142.778C146.33 142.227 149.56 141.777 153.091 141.267C156.397 140.787 159.742 140.487 163.071 140.212C177.611 139.018 192.064 139.09 206.604 140.176C220.269 141.195 233.265 143.48 246.678 147.162C260.315 150.905 274.165 155.666 286.39 162.371C290.2 164.464 293.95 166.623 297.695 168.86C306.131 173.856 314.819 178.317 324.055 181.268C328.971 182.833 333.882 184.291 338.891 185.436C343.884 186.582 348.887 187.451 353.94 188.195C363.351 189.586 372.981 189.994 382.468 189.652C392.558 189.292 402.467 188.003 412.419 186.156C422.191 184.339 431.739 180.962 440.985 177.118C445.283 175.331 449.471 173.106 453.516 170.713C457.715 168.224 461.772 165.544 465.588 162.377C469.519 159.115 473.411 155.708 476.641 151.582C478.382 149.357 480.03 147.096 481.65 144.769C483.128 142.658 484.229 140.164 485.329 137.807C487.464 133.249 488.876 128.259 489.402 123.162C489.933 117.974 489.884 112.457 488.499 107.401C487.76 104.702 486.928 102.154 485.959 99.5389C484.995 96.9362 483.533 94.5133 482.187 92.1325C480.977 89.9975 479.515 88.0004 478.01 86.1053C476.422 84.1143 474.812 82.0273 473.006 80.2761C469.25 76.6478 465.391 73.3734 461.274 70.2489C457.13 67.1004 452.531 64.6595 448.02 62.2127C439.212 57.433 429.631 54.2545 420.122 51.6517C410.952 49.1389 401.388 47.5377 391.961 46.86C386.771 46.4882 381.603 46.2243 376.408 46.2243C371.431 46.2243 366.477 46.5541 361.512 46.908C351.783 47.6156 342.039 49.4987 332.59 52.0895C323.037 54.7043 313.648 58.2486 304.801 62.9923C296.354 67.5262 287.989 73.0975 281.25 80.3721C277.636 84.2762 274.324 88.3483 271.598 93.05C269.091 97.368 266.791 102.28 265.806 107.329C265.286 109.98 264.903 112.529 264.623 115.215C264.388 117.542 264.601 119.953 264.815 122.268C265.22 126.7 266.331 130.76 267.777 134.85C259.598 132.241 251.304 130.052 242.933 128.283C242.824 127.648 242.72 127.006 242.616 126.37C242.528 125.848 242.441 125.333 242.358 124.811C242.331 124.667 242.309 124.523 242.282 124.379C242.282 124.355 242.282 124.319 242.276 124.271C242.167 122.646 241.975 121.015 241.975 119.384C241.975 117.716 241.91 116.049 242.068 114.394C242.167 113.35 242.265 112.301 242.364 111.257C242.38 111.125 242.386 111.059 242.386 111.029C242.386 111.017 242.397 110.988 242.408 110.916C242.49 110.412 242.572 109.908 242.654 109.404C243.771 102.556 245.884 96.8582 248.933 90.969C251.802 85.4217 255.147 80.7439 259.384 76.0901C263.961 71.0705 268.822 66.8245 273.81 62.9683C283.757 55.268 294.569 50.0205 305.677 45.5346C316.757 41.0548 328.276 38.1461 339.876 35.8612C345.811 34.6858 351.247 34.0621 357.422 33.4983C363.247 32.9706 369.11 32.5148 374.957 32.5628C380.995 32.6108 387.012 32.7487 393.045 33.1925C396.193 33.4264 399.33 33.7562 402.472 34.0921C403.633 34.218 404.782 34.3919 405.937 34.5538C406.956 34.6978 407.979 34.8477 408.998 34.9916C409.343 35.0396 409.687 35.0936 410.032 35.1416C410.169 35.1596 410.224 35.1656 410.251 35.1716C410.229 35.1656 410.207 35.1656 410.268 35.1775C422.098 37.2765 433.726 39.9753 445.108 44.1673C448.272 45.3367 451.359 46.5961 454.464 47.9335C454.737 48.0534 455.006 48.1734 455.279 48.2873C455.312 48.2993 455.334 48.3113 455.345 48.3113C455.367 48.3233 455.389 48.3353 455.427 48.3533C456.265 48.7491 457.108 49.1389 457.945 49.5347C459.139 50.0985 460.343 50.6382 461.515 51.2559C466.918 54.1105 472.376 57.0491 477.385 60.6894C480.139 62.6925 482.816 64.7495 485.482 66.9025C485.668 67.0524 485.827 67.1903 485.696 67.0704C485.915 67.2743 486.139 67.4722 486.358 67.6701C487.19 68.4137 488.022 69.1574 488.849 69.907C489.922 70.8666 490.924 71.8981 491.948 72.9176C494.028 75.0166 496.059 77.1996 497.888 79.5684C499.858 82.1412 501.528 84.1623 503.242 87.1488C506.493 92.8161 509.296 98.5074 510.698 104.738C512.214 111.479 512.762 117.47 511.941 124.517C511.601 127.42 510.84 130.796 509.948 134.029C509.521 135.57 508.913 137.033 508.36 138.526C508.048 139.366 508.158 139.102 507.835 139.816C507.369 140.847 506.904 141.885 506.439 142.916C503.756 148.889 500.258 153.597 496.207 158.389C494.335 160.614 492.353 162.749 490.256 164.716C487.732 167.079 485.844 168.95 483.013 171.091C478.25 174.695 473.384 178.27 468.199 181.112C465.336 182.683 462.478 184.225 459.566 185.67C458.865 186.018 458.164 186.366 457.464 186.714C457.447 186.719 457.431 186.731 457.425 186.731C457.398 186.743 457.365 186.761 457.321 186.779C456.949 186.941 456.577 187.103 456.204 187.265C454.677 187.925 453.15 188.591 451.622 189.256C445.89 191.751 439.951 193.664 434.011 195.439C428.585 197.065 423.095 198.45 417.549 199.487C414.297 200.099 411.056 200.657 407.793 201.179C407.125 201.287 406.463 201.389 405.795 201.496C405.992 201.466 405.85 201.484 405.62 201.514C405.198 201.562 404.777 201.61 404.355 201.658C402.56 201.868 400.764 202.078 398.974 202.288C387.132 203.661 375.225 203.476 363.356 202.99C360.729 202.882 358.079 202.624 355.468 202.318C353.53 202.09 351.597 201.868 349.659 201.646C349.577 201.634 348.98 201.556 349.396 201.616C349.199 201.592 349.008 201.562 348.816 201.532C347.809 201.377 346.802 201.227 345.794 201.077C340.084 200.213 334.32 199.23 328.719 197.742C322.621 196.123 316.593 194.384 310.609 192.327C308.124 191.469 305.644 190.516 303.219 189.46C299.956 188.039 297.492 186.965 294.487 185.514C289.987 183.349 285.678 180.854 281.375 178.252C276.06 175.067 270.7 172.164 265.165 169.478C259.674 166.809 253.915 164.752 248.2 162.785C236.785 158.857 224.993 156.596 213.163 154.803C201.36 153.016 189.376 152.812 177.491 153.004C165.649 153.195 153.792 154.989 142.164 157.285C130.804 159.522 119.318 162.911 108.632 167.709C97.5791 172.668 86.6575 178.365 77.1318 186.366C67.5185 194.438 59.0111 203.907 53.5475 215.884C50.8376 221.827 49.1898 228.106 48.489 234.697C47.7774 241.372 48.604 247.848 50.0602 254.325C51.4836 260.64 54.6041 266.428 57.7301 271.873C60.7575 277.145 64.8634 281.936 69.0295 286.128C78.057 295.202 88.3929 302.111 99.4131 307.868C109.727 313.253 120.797 317.355 131.921 320.186C143.543 323.143 155.313 325.38 167.237 326.255C179.051 327.131 191.035 327.395 202.843 326.225C214.871 325.032 226.811 323.209 238.537 319.994C250.368 316.75 261.716 312.294 272.764 306.638C283.215 301.295 293.48 294.014 301.708 285.121C303.805 282.854 306.033 280.581 307.839 278.02C309.788 275.255 311.617 272.491 313.396 269.594C316.708 264.179 318.69 258.008 320.31 251.795C322.161 244.694 321.712 237.132 320.611 229.941C326.349 231.116 332.113 232.1 337.911 232.868C339.882 233.137 341.858 233.383 343.845 233.617ZM276.492 88.2823C276.498 88.2763 276.509 88.2643 276.514 88.2583C276.558 88.1923 276.684 88.0424 276.492 88.2823ZM296.655 138.838C295.987 137.705 295.325 136.577 294.662 135.45C294.033 134.376 293.562 133.153 293.02 132.025C293.2 132.403 292.943 131.816 292.905 131.72C292.773 131.354 292.637 130.988 292.5 130.628C292.253 129.968 292.007 129.315 291.766 128.655C291.345 127.528 291.153 126.22 290.857 125.045C290.731 124.523 290.682 123.971 290.6 123.444C290.529 123.012 290.463 122.586 290.392 122.154C290.37 122.028 290.272 121.165 290.293 121.602C290.222 120.409 290.02 119.132 290.085 117.938C290.129 117.195 290.173 116.457 290.217 115.719C290.239 115.347 290.261 114.976 290.283 114.604C290.288 114.508 290.288 114.454 290.288 114.43C290.293 114.4 290.299 114.358 290.315 114.28C290.704 111.851 291.033 109.272 291.887 106.975C292.166 106.232 292.439 105.488 292.719 104.744C292.817 104.475 292.921 104.205 293.02 103.929C293.069 103.827 293.118 103.725 293.173 103.617C293.699 102.52 294.164 101.35 294.783 100.307C295.171 99.6409 295.56 98.9812 295.949 98.3155C296.135 98.0037 296.315 97.6918 296.502 97.38C296.551 97.296 296.6 97.2121 296.655 97.1221C296.66 97.1101 296.666 97.0981 296.666 97.0981C297.432 96.0306 298.193 94.9691 298.96 93.9076C300.443 91.8446 302.305 90.0575 304.045 88.2823C304.817 87.4907 305.639 86.777 306.46 86.0514C306.958 85.6076 307.462 85.1578 307.96 84.714C307.965 84.714 307.965 84.714 307.965 84.708C307.987 84.696 308.014 84.672 308.058 84.642C308.337 84.4261 308.611 84.2162 308.89 83.9943C312.651 81.0857 316.533 78.483 320.683 76.288C321.411 75.8982 322.139 75.5144 322.861 75.1306C323.152 74.9806 323.436 74.8307 323.721 74.6808C323.874 74.5968 324.203 74.4349 323.929 74.5608C325.194 73.9911 326.458 73.4214 327.728 72.8576C329.612 72.006 331.555 71.2084 333.498 70.5367C338.108 68.9415 342.712 67.5981 347.442 66.4707C349.741 65.9189 352.063 65.4691 354.378 65.0014C354.597 64.9594 354.647 64.9474 354.46 64.9774C354.63 64.9534 354.805 64.9294 354.975 64.8994C355.752 64.7855 356.535 64.6715 357.313 64.5576C358.287 64.4196 359.256 64.2457 360.236 64.1438C365.032 63.652 369.8 63.2622 374.618 63.1662C379.287 63.0703 383.93 63.2922 388.589 63.58C390.669 63.706 392.777 63.9459 394.846 64.2457C396.335 64.4676 397.824 64.6835 399.319 64.8994C399.488 64.9234 399.664 64.9474 399.833 64.9774C399.642 64.9474 399.696 64.9534 399.91 65.0014C400.611 65.1393 401.306 65.2832 402.007 65.4212C406.638 66.3627 411.209 67.5322 415.775 68.7976C419.651 69.8771 423.533 71.4903 427.228 73.1515C428.284 73.6253 429.341 74.099 430.392 74.5728C430.036 74.4109 430.403 74.5848 430.474 74.6208C430.737 74.7647 431 74.9027 431.263 75.0406C431.991 75.4244 432.713 75.8082 433.441 76.192C435.27 77.1636 437.049 78.2311 438.845 79.2746C440.788 80.6 442.715 81.9133 444.582 83.3586C446.394 84.762 447.922 85.9014 449.739 87.7605C451.611 89.6676 453.38 91.5927 455.121 93.6557C455.887 94.5613 456.549 95.5988 457.25 96.5704C457.398 96.7743 457.546 96.9782 457.694 97.1821C457.573 97.0201 457.672 97.1761 457.792 97.38C458.23 98.1236 458.668 98.8733 459.106 99.6169C460.464 101.926 461.236 103.839 462.095 106.142C462.971 108.487 463.486 110.904 463.852 113.404C463.902 113.734 463.945 114.064 464 114.394C464 114.406 464 114.412 464 114.424C464 114.448 464.006 114.502 464.011 114.604C464.06 115.485 464.11 116.367 464.164 117.249C464.241 118.52 464.104 119.791 464.028 121.057C464.022 121.159 463.956 121.866 464.017 121.429C463.984 121.668 463.945 121.908 463.913 122.154C463.787 123.024 463.655 123.887 463.529 124.757C463.349 125.98 462.916 127.198 462.599 128.391C462.287 129.573 461.756 130.712 461.334 131.852C461.29 131.966 461.252 132.055 461.236 132.103C461.126 132.325 461.017 132.559 460.907 132.781C460.535 133.555 460.168 134.334 459.79 135.114C459.259 136.224 458.569 137.255 457.951 138.311C457.841 138.496 457.726 138.688 457.617 138.874C457.83 138.514 457.502 139.036 457.442 139.114C456.933 139.822 456.423 140.529 455.914 141.237C454.606 143.066 453.111 144.757 451.557 146.341C450.763 147.144 449.996 147.984 449.159 148.728C448.557 149.261 447.96 149.795 447.358 150.329C447.095 150.563 446.832 150.797 446.569 151.03C446.432 151.15 446.12 151.402 446.35 151.228C442.584 154.143 438.763 156.944 434.596 159.151C433.337 159.816 432.078 160.482 430.814 161.148C430.638 161.244 430.458 161.34 430.277 161.436C430.25 161.448 430.211 161.465 430.173 161.483C429.5 161.783 428.832 162.083 428.158 162.383C425.887 163.403 423.587 164.32 421.272 165.226C417.16 166.851 412.895 168.098 408.631 169.118C406.162 169.706 403.704 170.227 401.218 170.701C400.715 170.797 400.216 170.893 399.713 170.989C399.877 170.959 399.872 170.971 399.642 171.001C399.33 171.049 399.023 171.091 398.716 171.139C397.288 171.349 395.864 171.559 394.441 171.763C385.205 173.112 375.789 172.986 366.51 172.422C364.342 172.29 362.174 172.008 360.012 171.787C358.84 171.667 357.668 171.445 356.502 171.277C355.884 171.187 355.265 171.091 354.647 171.001C354.422 170.971 354.411 170.959 354.575 170.989C354.351 170.947 354.126 170.905 353.907 170.863C348.997 169.921 344.185 168.788 339.367 167.397C335.19 166.197 331.051 164.59 327.06 162.803C326.332 162.479 325.604 162.149 324.882 161.825C324.624 161.711 324.372 161.597 324.121 161.483C324.071 161.46 324.033 161.448 324.006 161.436C324.006 161.436 324 161.43 323.967 161.412C322.681 160.734 321.394 160.05 320.108 159.367C318.296 158.413 316.478 157.375 314.77 156.212C312.569 154.713 310.456 153.177 308.343 151.54C308.201 151.426 308.058 151.312 307.91 151.204C308.233 151.456 307.79 151.09 307.724 151.03C307.089 150.467 306.454 149.903 305.819 149.333C305.009 148.62 304.253 147.882 303.487 147.102C301.867 145.459 300.197 143.768 298.828 141.861C298.39 141.255 297.947 140.643 297.509 140.032C297.29 139.726 297.071 139.42 296.852 139.114C296.731 138.952 296.513 138.598 296.655 138.838ZM293.025 103.929C293.031 103.917 293.036 103.905 293.036 103.893C293.069 103.815 293.168 103.635 293.025 103.929ZM461.23 132.109C461.208 132.151 461.214 132.145 461.23 132.109V132.109ZM430.283 161.436C430.381 161.382 430.387 161.388 430.283 161.436V161.436ZM558.682 134.454C557.45 139.168 556.12 143.462 554.401 147.666C552.715 151.774 550.591 155.594 548.434 159.42C544.372 166.593 538.848 172.824 533.16 178.905C527.056 185.442 520.574 190.336 513.501 195.505C507.293 200.045 500.499 204.153 493.699 207.53C479.055 214.798 463.267 220.975 447.188 225.143C431.334 229.251 416.032 231.812 399.915 233.053C389.711 233.833 379.397 234.205 369.121 233.941C368.93 233.857 368.711 233.851 368.524 233.929C362.842 233.767 357.17 233.419 351.531 232.832C343.002 231.95 335.146 230.895 326.918 229.557C324.673 229.191 322.44 228.766 320.206 228.292C320.042 228.142 319.818 228.106 319.599 228.166C314.02 226.966 308.474 225.509 302.961 224.082C299.825 223.266 296.677 222.343 293.545 221.323C293.381 221.173 293.162 221.113 292.96 221.131C288.7 219.734 284.485 218.163 280.379 216.483C272.567 213.287 265.549 210.198 258.224 206.216C254.523 204.207 250.915 202.084 247.297 199.895C243.081 197.346 238.838 195.122 234.388 193.124C230.369 191.319 226.165 189.922 221.971 188.699C213.163 186.132 204.07 184.393 194.96 183.835C185.779 183.271 176.374 183.151 167.242 184.585C162.458 185.334 157.706 186.162 152.976 187.289C148.777 188.291 144.479 189.472 140.434 191.079C135.797 192.927 131.302 194.936 126.851 197.262C122.724 199.421 118.902 202.228 115.185 205.125C111.671 207.865 108.254 211.182 105.55 214.876C103.962 217.047 102.539 219.188 101.17 221.527C99.9277 223.644 99.0956 226.097 98.2306 228.412C96.4678 233.119 96.2981 238.307 96.5225 243.303C96.632 245.815 97.382 248.358 97.9842 250.769C98.581 253.156 99.7744 255.459 100.804 257.642C101.822 259.801 103.196 261.756 104.559 263.651C105.884 265.492 107.302 267.291 108.868 268.886C112.349 272.443 116.012 275.591 120.036 278.374C120.829 278.926 121.623 279.471 122.417 280.017C122.521 280.089 122.62 280.125 122.718 280.137C129.955 284.701 137.729 287.951 145.728 290.608C154.58 293.541 163.783 294.932 172.963 295.886C182.15 296.839 191.473 296.431 200.648 295.484C209.807 294.542 218.78 292.365 227.566 289.421C231.7 288.035 235.756 286.29 239.676 284.293C243.826 282.176 247.91 279.861 251.676 276.989C255.59 274.002 259.319 270.836 262.57 266.985C264.07 265.21 265.56 263.369 266.769 261.342C268.056 259.195 269.534 256.964 270.394 254.559C271.209 252.268 272.26 249.822 272.622 247.381C272.978 244.964 273.525 242.337 273.388 239.878C273.24 237.407 273.229 234.703 272.583 232.304C271.937 229.911 271.363 227.296 270.284 225.083C269.134 222.714 267.925 220.471 266.6 218.211C265.335 216.058 263.616 214.138 262.05 212.249C260.572 210.48 258.946 208.885 257.238 207.386C268.1 213.215 279.306 218.115 290.945 221.983C291.465 222.151 291.985 222.319 292.505 222.486C293.425 224.999 294.191 227.428 294.876 230.043C295.21 231.332 295.368 232.7 295.609 234.019C295.626 234.091 295.631 234.139 295.642 234.169C295.642 234.181 295.642 234.199 295.642 234.217C295.669 234.547 295.697 234.877 295.719 235.206C295.79 236.118 295.861 237.03 295.932 237.935C296.365 243.596 295.357 248.37 293.835 253.696C293.474 254.949 292.96 256.142 292.494 257.354C292.379 257.654 292.264 257.96 292.149 258.259C292.149 258.265 292.144 258.265 292.144 258.271C292.138 258.277 292.116 258.313 292.056 258.439C291.668 259.261 291.273 260.083 290.885 260.904C289.828 263.123 288.569 265.24 287.178 267.225C285.613 269.474 284.479 271.213 282.525 273.354C280.631 275.435 278.731 277.438 276.722 279.381C276.476 279.621 276.229 279.861 275.983 280.095C275.824 280.251 275.698 280.365 275.863 280.227C275.332 280.665 274.806 281.103 274.28 281.54C273.405 282.266 272.545 283.028 271.636 283.705C269.441 285.355 267.251 286.95 264.979 288.467C261.043 291.088 256.954 293.475 252.716 295.472C251.315 296.125 249.913 296.785 248.512 297.445C248.506 297.451 248.506 297.451 248.495 297.457C248.49 297.457 248.474 297.463 248.446 297.475C248.244 297.559 248.036 297.649 247.828 297.733C247.012 298.069 246.202 298.404 245.386 298.746C242.95 299.76 240.486 300.647 238.012 301.541C233.753 303.088 229.291 304.354 224.9 305.361C219.814 306.525 214.729 307.55 209.577 308.312C208.854 308.414 208.132 308.522 207.409 308.63C207.267 308.654 207.119 308.672 206.971 308.695C207.398 308.63 206.812 308.707 206.719 308.714C205.115 308.887 203.506 309.061 201.902 309.241C199.477 309.499 197.046 309.631 194.621 309.811C185.122 310.495 175.46 310.081 166 309.049C164.642 308.905 163.284 308.755 161.927 308.612C162.337 308.654 161.861 308.6 161.773 308.582C161.489 308.54 161.199 308.492 160.908 308.45C160 308.306 159.091 308.162 158.182 308.018C155.642 307.622 153.113 307.142 150.578 306.668C146.133 305.835 141.589 304.701 137.258 303.31C132.255 301.697 127.311 300 122.433 297.955C121.87 297.721 121.3 297.481 120.736 297.241C120.72 297.235 120.709 297.229 120.698 297.229C120.687 297.223 120.682 297.217 120.665 297.211C120.381 297.073 120.096 296.935 119.811 296.797C118.437 296.137 117.068 295.478 115.7 294.818C113.707 293.859 111.72 292.791 109.815 291.64C107.4 290.182 105.057 288.689 102.72 287.088C101.871 286.5 101.045 285.9 100.212 285.283C99.5281 284.767 98.8437 284.251 98.154 283.735C97.9295 283.567 97.6996 283.4 97.4751 283.226C97.4094 283.178 97.3766 283.154 97.3656 283.148C97.3547 283.136 97.3382 283.124 97.3218 283.112C93.4897 279.831 89.5699 276.479 86.3892 272.413C85.8582 271.729 85.3217 271.045 84.7906 270.362C84.5717 270.08 84.3472 269.798 84.1282 269.516C84.068 269.444 84.0133 269.366 83.953 269.294C83.1319 268.071 82.3052 266.847 81.484 265.63C80.0114 263.435 78.8836 260.94 77.7559 258.529C77.6519 258.313 77.5478 258.092 77.4493 257.876C77.4493 257.876 77.3836 257.738 77.3234 257.57C77.0004 256.7 76.6774 255.825 76.3544 254.955C75.9055 253.732 75.5715 252.478 75.2212 251.213C74.8653 249.935 74.6354 248.664 74.3945 247.345C74.3233 246.943 74.2522 246.547 74.181 246.145C74.1317 245.893 74.1098 245.677 74.1263 245.893C74.0551 245.078 73.9784 244.268 73.9073 243.453C73.6664 240.868 73.7649 238.277 74.0003 235.698C74.0606 235.021 74.1208 234.343 74.1865 233.671C74.1427 234.115 74.2412 233.407 74.2631 233.311C74.3507 232.808 74.4438 232.304 74.5314 231.8C74.7723 230.469 75.046 229.245 75.4237 227.95C76.9292 222.774 78.7358 218.366 81.7687 213.863C82.2121 213.203 82.661 212.537 83.11 211.872C83.3454 211.524 83.5808 211.176 83.8162 210.822C83.8764 210.732 84.3417 210.096 84.0844 210.42C85.0096 209.257 85.9293 208.093 86.8545 206.936C88.3108 205.107 90.0243 203.464 91.6721 201.844C93.6922 199.853 95.2579 198.522 97.5737 196.567C99.3802 195.05 101.351 193.7 103.289 192.387C107.379 189.61 111.638 186.935 116.067 184.854C117.441 184.207 118.809 183.565 120.183 182.917C120.441 182.797 120.698 182.677 120.955 182.557C121.163 182.462 121.224 182.444 121.054 182.51C121.64 182.27 122.22 182.036 122.806 181.796C125.357 180.752 127.908 179.763 130.487 178.803C139.547 175.427 149.133 173.19 158.609 171.793C159.452 171.667 160.301 171.547 161.149 171.421C161.461 171.373 161.773 171.325 162.085 171.277C162.179 171.265 162.781 171.193 162.354 171.241C163.739 171.091 165.129 170.935 166.52 170.785C169.071 170.503 171.628 170.329 174.195 170.149C178.821 169.814 183.551 169.676 188.188 169.844C192.962 170.011 197.736 170.167 202.493 170.689C205.471 171.013 207.464 171.235 210.168 171.655C212.763 172.062 215.347 172.518 217.937 173.004C227.501 174.797 236.977 177.604 246.037 181.406C246.924 181.772 247.811 182.15 248.698 182.516C248.764 182.545 248.791 182.557 248.802 182.557C248.824 182.569 248.862 182.587 248.911 182.611C249.344 182.815 249.776 183.019 250.209 183.223C251.632 183.889 253.072 184.513 254.457 185.256C257.55 186.917 260.583 188.645 263.616 190.432C275.66 197.838 288.476 204.231 301.79 208.405C308.869 210.624 315.936 212.627 323.135 214.33C329.951 215.944 336.865 217.065 343.769 218.067C350.404 219.026 357.121 219.608 363.805 219.908C371.01 220.226 378.275 220.543 385.479 220.172C399.516 219.44 413.399 218.097 427.211 215.176C440.87 212.285 454.568 208.465 467.449 202.624C480.818 196.567 493.497 189.454 505.114 179.931C515.866 171.121 526.038 159.528 531.731 146.047C533.22 142.521 534.627 138.982 535.591 135.234C536.581 131.402 537.233 127.588 537.66 123.635C538.426 116.493 537.786 108.637 535.864 101.752C533.844 94.4953 531.151 87.4967 527.176 81.2356C523.202 74.9746 518.855 69.0494 513.665 63.9279C508.18 58.5125 502.404 53.6847 496.234 49.2409C490.344 45.0009 484.064 41.5105 477.736 38.1341C465.106 31.3873 451.464 26.9734 437.881 23.2492C431.279 21.4441 424.551 20.1007 417.823 19.0212C411.171 17.9597 404.465 16.9402 397.747 16.4904C383.18 15.5189 368.7 15.4529 354.143 16.7543C340.478 17.9777 326.579 20.1427 313.325 24.0528C306.306 26.1219 299.398 28.4128 292.511 30.9496C285.903 33.3844 279.558 36.6648 273.251 39.8853C260.594 46.3502 248.862 55.346 238.756 65.859C233.714 71.1065 229.346 77.2056 225.699 83.6765C222.004 90.2374 219.519 97.236 217.745 104.673C216.223 111.035 216.289 117.614 216.677 124.115C209.117 123.258 201.497 122.634 193.882 122.37C193.772 118.346 193.756 114.37 194.194 110.358C194.675 105.92 195.639 101.548 196.838 96.9362C198.918 88.954 202.876 81.0617 207.447 74.0751C216.683 59.9698 229.34 48.0714 242.977 38.9617C257.386 29.3363 271.926 22.6075 287.819 16.6763C303.148 10.9491 319.259 7.66862 335.234 5.07186C350.688 2.55905 367.67 1.86338 383.787 2.08528C399.855 2.30717 415.698 4.16029 431.164 7.17686C447.067 10.2774 462.785 14.7872 477.889 21.0902C492.435 27.1594 506.97 34.8957 519.857 45.2168C526.136 50.2484 532.602 55.8737 538.098 62.4646C543.808 69.3073 548.51 75.9642 552.54 84.2342C556.197 91.7367 558.994 100.427 559.892 108.667C560.834 117.332 560.795 126.328 558.682 134.454ZM252.404 205.407C252.941 205.82 253.472 206.24 254.008 206.654C254.058 206.69 254.085 206.714 254.101 206.726C254.342 206.936 254.589 207.146 254.829 207.356C255.716 208.135 256.674 208.861 257.507 209.713C259.39 211.632 261.153 213.569 262.888 215.656C264.618 217.743 265.521 219.35 266.819 221.569C267.432 222.612 267.946 223.704 268.483 224.807C268.636 225.113 268.789 225.425 268.937 225.737C268.981 225.827 269.003 225.869 269.014 225.887C269.014 225.893 269.019 225.899 269.019 225.911C269.304 226.696 269.583 227.488 269.868 228.274C270.717 230.643 271.226 233.053 271.598 235.56C271.642 235.848 271.68 236.136 271.724 236.424C271.696 236.22 271.718 236.43 271.729 236.694C271.784 237.593 271.833 238.487 271.888 239.386C271.959 240.64 271.806 241.911 271.729 243.165C271.713 243.429 271.696 243.626 271.724 243.429C271.68 243.716 271.642 244.004 271.598 244.292C271.472 245.138 271.346 245.977 271.226 246.817C271.045 248.04 270.596 249.258 270.284 250.445C269.961 251.657 269.441 252.832 269.019 254.008C269.019 254.02 269.014 254.025 269.014 254.031C269.003 254.049 268.981 254.091 268.937 254.181C268.784 254.493 268.636 254.805 268.483 255.111C268.127 255.855 267.766 256.592 267.404 257.33C266.331 259.531 264.831 261.534 263.446 263.507C263.304 263.711 263.162 263.909 263.019 264.113C263.123 263.963 263.041 264.071 262.888 264.257C262.346 264.898 261.804 265.534 261.262 266.176C260.545 267.027 259.8 267.813 259.023 268.605C258.251 269.39 257.496 270.182 256.674 270.907C256.061 271.453 255.448 271.999 254.829 272.545C254.605 272.743 254.386 272.941 254.162 273.138C254.134 273.168 254.112 273.186 254.096 273.198C254.079 273.21 254.052 273.234 254.003 273.27C250.253 276.131 246.41 279.106 242.254 281.217C240.968 281.876 239.676 282.53 238.384 283.19C238.242 283.262 238.094 283.34 237.951 283.412C238.318 283.226 237.869 283.448 237.787 283.49C237.087 283.807 236.386 284.131 235.685 284.455C233.44 285.493 231.169 286.386 228.88 287.292C224.774 288.905 220.46 290.104 216.207 291.124C213.77 291.706 211.34 292.203 208.887 292.677C208.4 292.767 207.918 292.857 207.431 292.953C207.606 292.917 207.579 292.929 207.36 292.965C207.048 293.007 206.741 293.055 206.435 293.097C205.006 293.307 203.582 293.511 202.154 293.721C192.918 295.07 183.502 294.944 174.228 294.38C172.071 294.248 169.925 293.967 167.779 293.745C166.607 293.625 165.436 293.403 164.27 293.235C163.651 293.145 163.033 293.055 162.419 292.965C162.195 292.929 162.173 292.917 162.343 292.953C162.129 292.911 161.916 292.869 161.702 292.827C156.835 291.904 152.062 290.794 147.282 289.403C143.116 288.191 138.983 286.716 135.008 284.881C134.275 284.545 133.541 284.209 132.813 283.867C132.534 283.741 132.26 283.615 131.981 283.49C131.855 283.424 131.647 283.322 131.696 283.346C130.487 282.728 129.277 282.116 128.061 281.498C126.288 280.593 124.508 279.555 122.855 278.416C120.972 277.115 119.105 275.813 117.276 274.422C117.041 274.236 116.8 274.056 116.565 273.876C116.083 273.492 115.601 273.108 115.13 272.713C115.016 272.617 114.906 272.515 114.797 272.419C114.337 272.011 113.866 271.609 113.395 271.201C112.875 270.722 112.355 270.224 111.835 269.702C110.094 267.909 108.441 266.098 106.815 264.167C106.738 264.077 106.661 263.975 106.59 263.885C105.824 262.817 105.057 261.756 104.291 260.688C104.537 261.03 104.192 260.49 104.143 260.412C103.946 260.083 103.749 259.759 103.557 259.429C103.305 259.009 103.054 258.595 102.802 258.176C102.183 257.138 101.701 256.029 101.187 254.931C101.055 254.649 100.924 254.373 100.787 254.091C100.765 254.037 100.754 254.02 100.749 254.014C100.743 253.99 100.732 253.966 100.716 253.93C100.601 253.612 100.481 253.294 100.366 252.982C100.19 252.514 100.015 252.046 99.8401 251.579C98.9697 249.246 98.5372 246.769 98.1375 244.298C98.0883 244.01 98.0445 243.722 97.9952 243.435C98.028 243.626 98.0061 243.441 97.9952 243.171C97.9623 242.445 97.9295 241.713 97.8967 240.988C97.8912 240.838 97.8857 240.682 97.8802 240.526C97.8529 239.986 97.8638 239.44 97.8802 238.901C97.9021 238.643 97.9185 238.379 97.935 238.127C97.9514 237.707 97.9678 237.281 97.9897 236.862C97.9952 236.67 98.028 236.298 98.0116 236.352C98.0116 236.358 98.0061 236.376 98.0007 236.43C98.0445 236.142 98.0937 235.854 98.1375 235.566C98.2744 234.727 98.4113 233.881 98.5481 233.041C98.7452 231.842 99.1394 230.649 99.4405 229.473C99.4514 229.419 99.4733 229.365 99.4843 229.311C99.5007 229.275 99.5116 229.239 99.5281 229.197C99.7799 228.514 100.037 227.83 100.294 227.146C100.42 226.798 100.552 226.457 100.678 226.115C100.705 226.049 100.727 225.989 100.749 225.923C100.76 225.911 100.771 225.887 100.793 225.839C100.924 225.557 101.055 225.275 101.187 224.999C101.548 224.226 101.915 223.458 102.276 222.69C102.315 222.606 102.353 222.528 102.391 222.451C102.397 222.439 102.402 222.427 102.408 222.415C102.758 221.827 103.103 221.239 103.442 220.651C103.65 220.304 103.858 219.95 104.061 219.602C104.105 219.524 104.368 219.11 104.368 219.086C104.433 218.99 104.499 218.9 104.565 218.804C105.112 218.061 105.66 217.317 106.202 216.567C107.203 215.2 108.282 213.905 109.421 212.663C109.442 212.639 109.47 212.615 109.492 212.585C109.552 212.525 109.607 212.465 109.661 212.405C110.264 211.764 110.882 211.134 111.495 210.51C112.251 209.737 113.028 209.035 113.838 208.327C114.156 208.051 114.479 207.769 114.802 207.488C115.043 207.278 115.289 207.062 115.536 206.852C115.612 206.78 115.683 206.726 115.716 206.702C116.603 206.012 117.495 205.323 118.393 204.645C121.443 202.36 124.596 200.237 127.93 198.492C129.2 197.832 130.476 197.167 131.746 196.501C131.768 196.489 131.784 196.483 131.789 196.477C131.795 196.471 131.8 196.471 131.811 196.465C132.041 196.363 132.266 196.261 132.496 196.159C132.852 195.997 133.213 195.841 133.569 195.679C133.618 195.655 133.667 195.631 133.711 195.613C136.027 194.57 138.364 193.628 140.718 192.693C141.726 192.291 142.739 191.919 143.762 191.559C143.888 191.517 144.014 191.475 144.14 191.433C144.315 191.373 144.485 191.313 144.66 191.259C147.857 190.21 151.142 189.388 154.372 188.615C155.461 188.357 156.551 188.117 157.64 187.895C160.832 187.253 164.034 186.714 167.226 186.216C167.472 186.174 167.713 186.138 167.96 186.096C167.549 186.162 168.014 186.102 168.102 186.09C168.381 186.066 168.66 186.036 168.94 186.006C169.339 185.964 169.733 185.922 170.133 185.88C170.182 185.874 170.232 185.868 170.281 185.868C170.691 185.826 171.097 185.784 171.502 185.742C172.367 185.652 173.221 185.556 174.086 185.502C176.363 185.358 178.635 185.214 180.918 185.16C183.787 185.112 186.65 185.124 189.507 185.208C189.54 185.208 189.568 185.214 189.595 185.214C189.989 185.226 190.383 185.244 190.772 185.256C192.283 185.316 193.799 185.388 195.31 185.478C196.148 185.532 196.98 185.604 197.812 185.688C198.157 185.724 198.508 185.766 198.852 185.802C199.619 185.88 200.391 185.958 201.157 186.036C201.393 186.06 201.623 186.084 201.858 186.108C201.874 186.108 201.891 186.114 201.907 186.114C201.913 186.114 201.918 186.114 201.924 186.114C201.946 186.12 201.956 186.12 201.967 186.12C202.192 186.156 202.422 186.192 202.646 186.228C203.473 186.354 204.294 186.486 205.115 186.612C205.373 186.654 205.63 186.69 205.887 186.731C206.741 186.869 207.595 187.013 208.438 187.169C210.513 187.571 212.566 188.003 214.619 188.471C217.28 189.094 219.924 189.784 222.568 190.546C224.824 191.211 227.079 191.943 229.307 192.771C229.581 192.873 229.855 192.975 230.128 193.082C230.189 193.106 230.254 193.13 230.315 193.154C231.705 193.694 233.085 194.27 234.437 194.882C235.253 195.247 236.068 195.613 236.878 195.973C237.218 196.123 237.552 196.279 237.891 196.429C237.935 196.447 237.968 196.465 238.001 196.477C238.17 196.567 238.34 196.657 238.51 196.747C239.249 197.131 239.988 197.52 240.733 197.904C242.72 198.948 244.63 200.123 246.557 201.293C248.545 202.618 250.505 203.925 252.404 205.407ZM238.034 196.495C238.023 196.489 238.006 196.483 237.995 196.477C238.001 196.477 238.006 196.477 238.006 196.483C238.017 196.489 238.023 196.489 238.034 196.495Z" fill="url(#paint0_linear_1708_8637)" fill-opacity="0.57"/>
<defs>
<linearGradient id="paint0_linear_1708_8637" x1="519.5" y1="31.7824" x2="-9.23115" y2="311.369" gradientUnits="userSpaceOnUse">
<stop stop-color="#097B45" stop-opacity="0.56"/>
<stop offset="1" stop-color="#6AFFB9" stop-opacity="0.25"/>
</linearGradient>
</defs>
</svg>
